<svg width="249" height="47" viewBox="0 0 249 47" fill="none" xmlns="http://www.w3.org/2000/svg">
<path d="M34.2536 32.9375H4.2488L0 46.9999L34.2536 32.9375Z" fill="#BDBDBD"/>
<path d="M77.456 0H48.9928L47.188 13.348L70.3872 3.12082L77.456 0Z" fill="#BDBDBD"/>
<path d="M4.5496 32.5617H35.7576H44.2176L46.1352 18.4617L46.7368 13.9497L4.5496 32.5617Z" fill="#BDBDBD"/>
<path d="M65.0104 32.524L78.02 0.187988L47.1504 13.7616L44.6312 32.524H65.0104Z" fill="#BDBDBD"/>
<path d="M102.046 22.5976V25.1544C102.046 29.0648 99.7152 31.396 95.7672 31.396C91.8568 31.396 89.488 29.0648 89.488 25.1544V12.596C89.488 11.7688 89.9768 11.28 90.804 11.28C91.5936 11.28 92.0824 11.8064 92.0824 12.596V18.236H92.1576C93.0976 17.108 94.4512 16.4688 96.2184 16.4688C99.828 16.4688 102.046 18.8376 102.046 22.5976ZM99.452 22.7104C99.452 20.1912 98.0984 18.7624 95.7672 18.7624C93.436 18.7624 92.0824 20.2288 92.0824 22.7104V25.0416C92.0824 27.636 93.3984 29.14 95.7672 29.14C98.1736 29.14 99.452 27.636 99.452 25.0416V22.7104ZM108.25 12.4456V13.1224C108.25 13.9496 107.649 14.5136 106.746 14.5136C105.882 14.5136 105.242 13.9496 105.242 13.1224V12.4456C105.242 11.6184 105.844 11.0544 106.746 11.0544C107.611 11.0544 108.25 11.6184 108.25 12.4456ZM108.025 17.9728V29.892C108.025 30.7192 107.574 31.208 106.709 31.208C105.882 31.208 105.43 30.6816 105.43 29.892V17.9728C105.43 17.1456 105.882 16.6568 106.709 16.6568C107.574 16.6568 108.025 17.1456 108.025 17.9728ZM120.658 29.6288C119.869 30.7568 118.59 31.396 116.861 31.396C114.078 31.396 112.499 29.892 112.499 27.1096V19.0256H111.258C110.544 19.0256 110.055 18.612 110.055 17.9352C110.055 17.2208 110.506 16.8448 111.258 16.8448H112.499V14.1752C112.499 13.348 112.988 12.8592 113.815 12.8592C114.642 12.8592 115.094 13.3856 115.094 14.1752V16.8448H119.418C120.132 16.8448 120.621 17.2584 120.621 17.9352C120.621 18.612 120.17 19.0256 119.418 19.0256H115.094V27.1096C115.094 28.388 115.733 29.1024 116.974 29.1024C117.801 29.1024 118.29 28.764 118.741 28.1248C118.929 27.824 119.305 27.636 119.718 27.636C120.47 27.636 120.922 28.1248 120.922 28.8016C120.922 29.14 120.809 29.4032 120.658 29.6288ZM152.054 22.748V25.3048C152.054 29.0648 149.836 31.396 146.226 31.396C144.497 31.396 143.106 30.7568 142.166 29.6288H142.09V34.6296C142.09 35.4568 141.602 35.9456 140.812 35.9456C139.985 35.9456 139.496 35.4192 139.496 34.6296V22.7104C139.496 18.8 141.865 16.4688 145.775 16.4688C149.723 16.4688 152.054 18.8376 152.054 22.748ZM149.46 22.8608C149.46 20.2288 148.182 18.7624 145.775 18.7624C143.406 18.7624 142.09 20.2288 142.09 22.8608V25.192C142.09 27.636 143.444 29.14 145.775 29.14C148.106 29.14 149.46 27.6736 149.46 25.192V22.8608ZM165.177 19.6648C165.177 20.4168 164.65 20.9056 163.936 20.9056C163.447 20.9056 163.071 20.7176 162.846 20.2288C162.394 19.2512 161.605 18.7248 160.402 18.7248C158.785 18.7248 157.807 19.8152 157.807 21.6952V29.8544C157.807 30.6816 157.318 31.1704 156.529 31.1704C155.702 31.1704 155.213 30.644 155.213 29.8544V21.5824C155.213 18.3488 157.206 16.4312 160.439 16.4312C162.62 16.4312 164.387 17.4088 165.102 19.1384C165.139 19.3264 165.177 19.5144 165.177 19.6648ZM179.427 22.748V25.1544C179.427 29.0648 177.058 31.396 173.148 31.396C169.2 31.396 166.869 29.0648 166.869 25.1544V22.748C166.869 18.8376 169.2 16.5064 173.148 16.5064C177.058 16.4688 179.427 18.8376 179.427 22.748ZM169.501 22.8608V25.0416C169.501 27.636 170.779 29.14 173.186 29.14C175.554 29.14 176.87 27.636 176.87 25.0416V22.8608C176.87 20.2288 175.554 18.7624 173.186 18.7624C170.779 18.7624 169.501 20.2288 169.501 22.8608ZM195.144 22.748V25.3048C195.144 29.0648 192.926 31.396 189.316 31.396C187.586 31.396 186.195 30.7568 185.255 29.6288H185.18V34.6296C185.18 35.4568 184.691 35.9456 183.902 35.9456C183.074 35.9456 182.586 35.4192 182.586 34.6296V22.7104C182.586 18.8 184.954 16.4688 188.865 16.4688C192.813 16.4688 195.144 18.8376 195.144 22.748ZM192.55 22.8608C192.55 20.2288 191.271 18.7624 188.865 18.7624C186.496 18.7624 185.18 20.2288 185.18 22.8608V25.192C185.18 27.636 186.534 29.14 188.865 29.14C191.196 29.14 192.55 27.6736 192.55 25.192V22.8608ZM210.259 22.748V23.6128C210.259 24.3648 209.808 24.8536 209.018 24.8536H200.671V25.0416C200.671 27.636 201.95 29.14 204.318 29.14C205.785 29.14 206.838 28.5008 207.477 27.448C207.702 27.072 208.116 26.8088 208.567 26.8088C209.357 26.8088 209.846 27.26 209.846 28.012C209.846 28.2752 209.77 28.5008 209.658 28.7264C208.567 30.4936 206.762 31.396 204.318 31.396C200.408 31.396 198.077 29.0648 198.077 25.1544V22.748C198.077 18.8376 200.37 16.5064 204.206 16.5064C208.003 16.4688 210.259 18.8752 210.259 22.748ZM200.709 22.6728H207.74C207.74 20.2288 206.386 18.7248 204.206 18.7248C201.987 18.7624 200.709 20.1912 200.709 22.6728ZM223.194 19.6648C223.194 20.4168 222.667 20.9056 221.953 20.9056C221.464 20.9056 221.088 20.7176 220.862 20.2288C220.411 19.2512 219.622 18.7248 218.418 18.7248C216.802 18.7248 215.824 19.8152 215.824 21.6952V29.8544C215.824 30.6816 215.335 31.1704 214.546 31.1704C213.718 31.1704 213.23 30.644 213.23 29.8544V21.5824C213.23 18.3488 215.222 16.4312 218.456 16.4312C220.637 16.4312 222.404 17.4088 223.118 19.1384C223.194 19.3264 223.194 19.5144 223.194 19.6648ZM234.549 29.6288C233.759 30.7568 232.481 31.396 230.751 31.396C227.969 31.396 226.39 29.892 226.39 27.1096V19.0256H225.149C224.434 19.0256 223.946 18.612 223.946 17.9352C223.946 17.2208 224.397 16.8448 225.149 16.8448H226.39V14.1752C226.39 13.348 226.878 12.8592 227.706 12.8592C228.533 12.8592 228.984 13.3856 228.984 14.1752V16.8448H233.308C234.022 16.8448 234.511 17.2584 234.511 17.9352C234.511 18.612 234.06 19.0256 233.308 19.0256H228.984V27.1096C228.984 28.388 229.623 29.1024 230.864 29.1024C231.691 29.1024 232.18 28.764 232.631 28.1248C232.819 27.824 233.195 27.636 233.609 27.636C234.361 27.636 234.812 28.1248 234.812 28.8016C234.774 29.14 234.699 29.4032 234.549 29.6288ZM248.912 17.8224C248.912 18.236 248.837 18.424 248.724 18.612L241.091 35.3064C240.903 35.72 240.527 35.9832 239.926 35.9832C239.136 35.9832 238.647 35.4944 238.647 34.7048C238.647 34.4416 238.722 34.216 238.835 34.028L240.866 30.0048L235.752 18.5368C235.677 18.3112 235.639 18.1232 235.639 17.86C235.639 17.1832 236.09 16.6568 236.918 16.6568C237.519 16.6568 237.933 16.9576 238.158 17.4464L242.219 26.9968H242.294L246.543 17.3712C246.731 16.92 247.107 16.6568 247.671 16.6568C248.423 16.6568 248.912 17.1456 248.912 17.8224Z" fill="#BDBDBD"/>
<path d="M130.058 27.2225V28.3881C130.058 30.2681 128.93 31.3961 127.05 31.3961C125.17 31.3961 124.042 30.2681 124.042 28.3881V27.2225C124.042 25.3425 125.17 24.2145 127.05 24.2145C128.893 24.1769 130.058 25.3425 130.058 27.2225ZM125.246 27.2601V28.3129C125.246 29.5537 125.847 30.3057 127.013 30.3057C128.141 30.3057 128.78 29.5913 128.78 28.3129V27.2601C128.78 25.9817 128.141 25.2672 127.013 25.2672C125.885 25.2672 125.246 25.9817 125.246 27.2601Z" fill="#BDBDBD"/>
<path d="M133.254 23.9512V24.3649H135.322C135.661 24.3649 135.886 24.5528 135.886 24.8912C135.886 25.2296 135.661 25.4177 135.322 25.4177H133.254V30.6441C133.254 31.0577 133.029 31.2832 132.615 31.2832C132.239 31.2832 132.014 31.0201 132.014 30.6441V25.4177H131.412C131.074 25.4177 130.848 25.2296 130.848 24.8912C130.848 24.5528 131.074 24.3649 131.412 24.3649H132.014V23.9512C132.014 22.4472 132.841 21.5825 134.382 21.5825C135.059 21.5825 135.661 21.7705 136.074 22.1841C136.187 22.2969 136.225 22.4097 136.225 22.5977C136.225 22.9737 135.962 23.1992 135.661 23.1992C135.473 23.1992 135.322 23.124 135.21 23.0112C134.984 22.7856 134.721 22.7105 134.382 22.7105C133.668 22.6729 133.254 23.124 133.254 23.9512Z" fill="#BDBDBD"/>
</svg>
