<svg xmlns="http://www.w3.org/2000/svg" xmlns:xlink="http://www.w3.org/1999/xlink" width="215" height="65.54" viewBox="0 0 215 65.54"><defs><style>.a{fill:none;}.b{clip-path:url(#a);}.c{fill:#58595b;}.d{fill:#18aa60;}.d,.e{fill-rule:evenodd;}.e{fill:#05b2d0;}</style><clipPath id="a"><rect class="a" width="215" height="65.54"/></clipPath></defs><g transform="translate(-146 -42)"><g class="b" transform="translate(146 42)"><path class="c" d="M5327.45,851.14h10.5v36.413h-10.5Z" transform="translate(-5236.292 -836.576)"/><path class="c" d="M6371.542,851.13h10.552l9.95,14.269a68.322,68.322,0,0,1,4.21,6.726h.11c-.056-.274-.22-3.445-.22-6.343V851.13h9.4v36.413h-9.514l-11.152-15.692a65.509,65.509,0,0,1-3.993-6.069h-.107c0,.328.164,2.788.164,5.521v16.24h-9.4V851.13Z" transform="translate(-6262.518 -836.567)"/><path class="c" d="M8799.115,879.266c6.393,0,9.4-3.5,9.4-10.171,0-6.778-3.01-9.73-9.68-9.73h-2.785v19.9Zm-13.5-28.156h13.01c14.27,0,20.939,7.162,20.939,17.659s-6.834,18.754-21.268,18.754h-12.682Z" transform="translate(-8635.281 -836.547)"/><path class="c" d="M10820.517,859.614h-9.786V851.14h30.017v8.474h-9.788v27.939h-10.442Z" transform="translate(-10625.747 -836.576)"/><path class="d" d="M672.262,0c-3.1.013-9.016,2.461-15.168,5.493l7.389,4.045,0,0c3.371-1.486,6.212-2.478,7.792-2.478,6.368,0,11.913.436,11.913,25.664s-5.6,25.75-11.913,25.75-33.068-15.991-33.068-15.991-6.554-3.361-6.554-9.716,6.554-9.688,6.554-9.688,4.426-2.654,10.1-5.8l-6.988-3.827c-3.549,2.041-5.913,3.484-5.913,3.484S625.5,22.926,625.5,32.6s10.907,16.037,10.907,16.037,27.838,16.9,35.88,16.9,19.051-.233,19.051-32.824c0-32.084-10.6-32.7-18.669-32.716h-.407Z" transform="translate(-614.797)"/><path class="e" d="M19.052,65.55c3.09,0,9.025-2.455,15.192-5.494L26.854,56.01h0c-3.372,1.487-6.213,2.478-7.795,2.478-6.368,0-11.912-.435-11.912-25.664s5.6-25.75,11.912-25.75S52.131,23.065,52.131,23.065s6.556,3.36,6.556,9.715-6.556,9.687-6.556,9.687-4.425,2.654-10.1,5.8L49.018,52.1c3.549-2.043,5.914-3.486,5.914-3.486s10.9-5.986,10.9-15.66-10.9-16.037-10.9-16.037S27.093.01,19.052.01,0,.243,0,32.832,10.935,65.55,19.052,65.55Z" transform="translate(0 -0.01)"/></g></g></svg>