<svg width="157" height="48" viewBox="0 0 157 48" fill="none" xmlns="http://www.w3.org/2000/svg">
<path d="M66.5667 10.4463H74.2341V36.5587H66.5667V10.4463Z" fill="#BDBDBD"/>
<path d="M79.6129 10.4456H87.3185L94.5841 20.6781C95.7031 22.2261 96.7296 23.8366 97.6583 25.5015H97.7386C97.6977 25.305 97.5781 23.031 97.5781 20.9528V10.4456H104.442V36.558H97.4947L89.3512 25.305C88.2981 23.9083 87.3245 22.4554 86.4353 20.9528H86.3572C86.3572 21.188 86.477 22.9521 86.477 24.912V36.558H79.6129V10.4456V10.4456Z" fill="#BDBDBD"/>
<path d="M119.637 30.6368C124.305 30.6368 126.501 28.1268 126.501 23.3429C126.501 18.4823 124.303 16.3654 119.432 16.3654H117.399V30.6361L119.637 30.6368ZM109.779 10.4456H119.279C129.7 10.4456 134.57 15.5816 134.57 23.1092C134.57 30.6368 129.579 36.558 119.039 36.558H109.778L109.779 10.4456Z" fill="#BDBDBD"/>
<path d="M142.227 16.5232H135.082V10.4463H157.001V16.5232H149.853V36.5587H142.228L142.227 16.5232Z" fill="#BDBDBD"/>
<path fill-rule="evenodd" clip-rule="evenodd" d="M41.9628 0.00215136C39.6991 0.0114739 35.379 1.76698 30.8866 3.94129L36.2823 6.84204C38.7439 5.7764 40.8186 5.06501 41.9723 5.06501C46.6224 5.06501 50.6716 5.37768 50.6716 23.4692C50.6716 41.5606 46.5823 41.935 41.9723 41.935C37.3624 41.935 17.825 30.4675 17.825 30.4675C17.825 30.4675 13.039 28.0573 13.039 23.5C13.039 18.9427 17.825 16.5525 17.825 16.5525C17.825 16.5525 21.057 14.6493 25.2003 12.3933L20.0974 9.64884C17.5058 11.1125 15.7796 12.1473 15.7796 12.1473C15.7796 12.1473 7.81567 16.4428 7.81567 23.3802C7.81567 30.3177 15.7803 34.8807 15.7803 34.8807C15.7803 34.8807 36.1085 47 41.9811 47C47.8536 47 55.8927 46.8329 55.8927 23.4613C55.8927 0.453219 48.1523 0.0114739 42.26 0H41.9628V0.00215136Z" fill="#BDBDBD"/>
<path fill-rule="evenodd" clip-rule="evenodd" d="M13.9124 47.0022C16.1688 47.0022 20.5027 45.2417 25.0061 43.0623L19.6097 40.1609C17.1473 41.2272 15.0727 41.9379 13.9175 41.9379C9.26738 41.9379 5.21897 41.626 5.21897 23.5338C5.21897 5.44155 9.30827 5.06793 13.9175 5.06793C18.5267 5.06793 38.0678 16.5354 38.0678 16.5354C38.0678 16.5354 42.8552 18.9449 42.8552 23.5022C42.8552 28.0595 38.0678 30.4489 38.0678 30.4489C38.0678 30.4489 34.8365 32.3522 30.6924 34.6082L35.7945 37.3569C38.3861 35.8919 40.1131 34.8571 40.1131 34.8571C40.1131 34.8571 48.0727 30.5644 48.0727 23.627C48.0727 16.6896 40.1131 12.1265 40.1131 12.1265C40.1131 12.1265 19.7842 0.00219727 13.9124 0.00219727C8.04059 0.00219727 0 0.169287 0 23.5395C0 46.9097 7.98509 47.0022 13.9124 47.0022Z" fill="#BDBDBD"/>
</svg>
