<svg width="219" height="38" viewBox="0 0 219 38" fill="none" xmlns="http://www.w3.org/2000/svg">
<path d="M61.1301 18.4579C61.1301 17.4552 61.2368 16.4846 61.4501 15.5459C61.6848 14.6072 62.0474 13.7752 62.5381 13.0499C63.0288 12.3032 63.6688 11.7166 64.4581 11.2899C65.2474 10.8419 66.2074 10.6179 67.3381 10.6179C68.4688 10.6179 69.4288 10.8419 70.2181 11.2899C71.0074 11.7166 71.6474 12.3032 72.1381 13.0499C72.6288 13.7752 72.9808 14.6072 73.1941 15.5459C73.4288 16.4846 73.5461 17.4552 73.5461 18.4579C73.5461 19.4179 73.4288 20.3566 73.1941 21.2739C72.9808 22.1699 72.6288 22.9806 72.1381 23.7059C71.6474 24.4312 71.0074 25.0179 70.2181 25.4659C69.4288 25.8926 68.4688 26.1059 67.3381 26.1059C66.2074 26.1059 65.2474 25.8926 64.4581 25.4659C63.6688 25.0179 63.0288 24.4312 62.5381 23.7059C62.0474 22.9806 61.6848 22.1699 61.4501 21.2739C61.2368 20.3566 61.1301 19.4179 61.1301 18.4579ZM56.1061 18.4579C56.1061 20.1219 56.3621 21.6792 56.8741 23.1299C57.3861 24.5592 58.1221 25.8072 59.0821 26.8739C60.0421 27.9406 61.2154 28.7832 62.6021 29.4019C64.0101 29.9992 65.5888 30.2979 67.3381 30.2979C69.1088 30.2979 70.6874 29.9992 72.0741 29.4019C73.4608 28.7832 74.6341 27.9406 75.5941 26.8739C76.5541 25.8072 77.2901 24.5592 77.8021 23.1299C78.3141 21.6792 78.5701 20.1219 78.5701 18.4579C78.5701 16.7512 78.3141 15.1726 77.8021 13.7219C77.2901 12.2499 76.5541 10.9699 75.5941 9.88189C74.6341 8.79389 73.4608 7.94055 72.0741 7.32189C70.6874 6.70322 69.1088 6.39389 67.3381 6.39389C65.5888 6.39389 64.0101 6.70322 62.6021 7.32189C61.2154 7.94055 60.0421 8.79389 59.0821 9.88189C58.1221 10.9699 57.3861 12.2499 56.8741 13.7219C56.3621 15.1726 56.1061 16.7512 56.1061 18.4579ZM82.0044 6.93789V29.7859H86.7084V14.4899H86.7724L96.2764 29.7859H101.3V6.93789H96.5964V22.2659H96.5324L86.9964 6.93789H82.0044ZM109.147 22.2019H104.283C104.262 23.6099 104.518 24.8259 105.051 25.8499C105.584 26.8739 106.299 27.7166 107.195 28.3779C108.112 29.0392 109.158 29.5192 110.331 29.8179C111.526 30.1379 112.752 30.2979 114.011 30.2979C115.568 30.2979 116.934 30.1166 118.107 29.7539C119.302 29.3912 120.294 28.8899 121.083 28.2499C121.894 27.5886 122.502 26.8099 122.907 25.9139C123.312 25.0179 123.515 24.0472 123.515 23.0019C123.515 21.7219 123.238 20.6766 122.683 19.8659C122.15 19.0339 121.51 18.3726 120.763 17.8819C120.016 17.3912 119.259 17.0392 118.491 16.8259C117.744 16.5912 117.158 16.4312 116.731 16.3459C115.302 15.9832 114.139 15.6846 113.243 15.4499C112.368 15.2152 111.675 14.9806 111.163 14.7459C110.672 14.5112 110.342 14.2552 110.171 13.9779C110 13.7006 109.915 13.3379 109.915 12.8899C109.915 12.3992 110.022 11.9939 110.235 11.6739C110.448 11.3539 110.715 11.0872 111.035 10.8739C111.376 10.6606 111.75 10.5112 112.155 10.4259C112.56 10.3406 112.966 10.2979 113.371 10.2979C113.99 10.2979 114.555 10.3512 115.067 10.4579C115.6 10.5646 116.07 10.7459 116.475 11.0019C116.88 11.2579 117.2 11.6099 117.435 12.0579C117.691 12.5059 117.84 13.0712 117.883 13.7539H122.747C122.747 12.4312 122.491 11.3112 121.979 10.3939C121.488 9.45522 120.816 8.68722 119.963 8.08989C119.11 7.49255 118.128 7.06589 117.019 6.80989C115.931 6.53255 114.79 6.39389 113.595 6.39389C112.571 6.39389 111.547 6.53255 110.523 6.80989C109.499 7.08722 108.582 7.51389 107.771 8.08989C106.96 8.66589 106.299 9.39122 105.787 10.2659C105.296 11.1192 105.051 12.1326 105.051 13.3059C105.051 14.3512 105.243 15.2472 105.627 15.9939C106.032 16.7192 106.555 17.3272 107.195 17.8179C107.835 18.3086 108.56 18.7139 109.371 19.0339C110.182 19.3326 111.014 19.5886 111.867 19.8019C112.699 20.0366 113.52 20.2499 114.331 20.4419C115.142 20.6339 115.867 20.8579 116.507 21.1139C117.147 21.3699 117.659 21.6899 118.043 22.0739C118.448 22.4579 118.651 22.9592 118.651 23.5779C118.651 24.1539 118.502 24.6339 118.203 25.0179C117.904 25.3806 117.531 25.6686 117.083 25.8819C116.635 26.0952 116.155 26.2446 115.643 26.3299C115.131 26.3939 114.651 26.4259 114.203 26.4259C113.542 26.4259 112.902 26.3512 112.283 26.2019C111.664 26.0312 111.12 25.7859 110.651 25.4659C110.203 25.1246 109.84 24.6872 109.563 24.1539C109.286 23.6206 109.147 22.9699 109.147 22.2019ZM131.56 11.1619V29.7859H136.584V11.1619H143.432V6.93789H124.712V11.1619H131.56ZM150.099 18.4579C150.099 17.4552 150.206 16.4846 150.419 15.5459C150.654 14.6072 151.016 13.7752 151.507 13.0499C151.998 12.3032 152.638 11.7166 153.427 11.2899C154.216 10.8419 155.176 10.6179 156.307 10.6179C157.438 10.6179 158.398 10.8419 159.187 11.2899C159.976 11.7166 160.616 12.3032 161.107 13.0499C161.598 13.7752 161.95 14.6072 162.163 15.5459C162.398 16.4846 162.515 17.4552 162.515 18.4579C162.515 19.4179 162.398 20.3566 162.163 21.2739C161.95 22.1699 161.598 22.9806 161.107 23.7059C160.616 24.4312 159.976 25.0179 159.187 25.4659C158.398 25.8926 157.438 26.1059 156.307 26.1059C155.176 26.1059 154.216 25.8926 153.427 25.4659C152.638 25.0179 151.998 24.4312 151.507 23.7059C151.016 22.9806 150.654 22.1699 150.419 21.2739C150.206 20.3566 150.099 19.4179 150.099 18.4579ZM145.075 18.4579C145.075 20.1219 145.331 21.6792 145.843 23.1299C146.355 24.5592 147.091 25.8072 148.051 26.8739C149.011 27.9406 150.184 28.7832 151.571 29.4019C152.979 29.9992 154.558 30.2979 156.307 30.2979C158.078 30.2979 159.656 29.9992 161.043 29.4019C162.43 28.7832 163.603 27.9406 164.563 26.8739C165.523 25.8072 166.259 24.5592 166.771 23.1299C167.283 21.6792 167.539 20.1219 167.539 18.4579C167.539 16.7512 167.283 15.1726 166.771 13.7219C166.259 12.2499 165.523 10.9699 164.563 9.88189C163.603 8.79389 162.43 7.94055 161.043 7.32189C159.656 6.70322 158.078 6.39389 156.307 6.39389C154.558 6.39389 152.979 6.70322 151.571 7.32189C150.184 7.94055 149.011 8.79389 148.051 9.88189C147.091 10.9699 146.355 12.2499 145.843 13.7219C145.331 15.1726 145.075 16.7512 145.075 18.4579ZM186.205 14.6179H191.069C190.92 13.2952 190.557 12.1219 189.981 11.0979C189.405 10.0739 188.669 9.22055 187.773 8.53789C186.898 7.83389 185.896 7.30055 184.765 6.93789C183.656 6.57522 182.472 6.39389 181.213 6.39389C179.464 6.39389 177.885 6.70322 176.477 7.32189C175.09 7.94055 173.917 8.79389 172.957 9.88189C171.997 10.9699 171.261 12.2499 170.749 13.7219C170.237 15.1726 169.981 16.7512 169.981 18.4579C169.981 20.1219 170.237 21.6792 170.749 23.1299C171.261 24.5592 171.997 25.8072 172.957 26.8739C173.917 27.9406 175.09 28.7832 176.477 29.4019C177.885 29.9992 179.464 30.2979 181.213 30.2979C182.621 30.2979 183.912 30.0846 185.085 29.6579C186.258 29.2312 187.282 28.6126 188.157 27.8019C189.032 26.9912 189.736 26.0099 190.269 24.8579C190.802 23.7059 191.133 22.4152 191.261 20.9859H186.397C186.205 22.5219 185.672 23.7592 184.797 24.6979C183.944 25.6366 182.749 26.1059 181.213 26.1059C180.082 26.1059 179.122 25.8926 178.333 25.4659C177.544 25.0179 176.904 24.4312 176.413 23.7059C175.922 22.9806 175.56 22.1699 175.325 21.2739C175.112 20.3566 175.005 19.4179 175.005 18.4579C175.005 17.4552 175.112 16.4846 175.325 15.5459C175.56 14.6072 175.922 13.7752 176.413 13.0499C176.904 12.3032 177.544 11.7166 178.333 11.2899C179.122 10.8419 180.082 10.6179 181.213 10.6179C181.832 10.6179 182.418 10.7246 182.973 10.9379C183.549 11.1299 184.061 11.4072 184.509 11.7699C184.957 12.1326 185.33 12.5592 185.629 13.0499C185.928 13.5192 186.12 14.0419 186.205 14.6179ZM194.692 6.93789V29.7859H199.716V22.4259L202.596 19.5139L209.476 29.7859H215.78L205.988 15.9619L214.916 6.93789H208.644L199.716 16.4099V6.93789H194.692Z" fill="#BDBDBD"/>
<path fill-rule="evenodd" clip-rule="evenodd" d="M3.67087 17.5653C3.24325 15.1422 5.17722 14.198 7.93457 15.4548L21.7786 22.2241C21.7786 22.2241 26.8548 36.5652 21.7913 36.5652C16.7277 36.5652 10.0995 32.1298 10.0995 32.1298C7.75595 30.8284 5.46978 27.8127 5.04516 25.386L3.67087 17.5653Z" fill="#BDBDBD"/>
<path fill-rule="evenodd" clip-rule="evenodd" d="M39.0613 13.5691C39.0613 13.5691 37.8019 15.4282 32.1005 18.8124C26.7292 22.1965 21.8034 23.0254 21.8034 23.0254L21.8122 36.5457C27.2149 36.5457 32.7836 32.3655 32.7836 32.3655C35.0704 30.9958 37.2793 27.9201 37.6608 25.5005L39.0613 13.5691Z" fill="#BDBDBD"/>
<path fill-rule="evenodd" clip-rule="evenodd" d="M21.6723 22.9876C27.0128 22.9876 38.6584 15.5982 38.9704 13.6168C39.2824 11.6354 26.6128 4.98438 21.6376 4.98438C19.8951 4.98438 16.9109 5.81519 13.8348 6.98982C10.7588 8.16445 4.0313 12.4708 4.21302 13.6168C4.49269 15.3805 16.3318 22.9876 21.6723 22.9876Z" fill="#BDBDBD"/>
<g filter="url(#filter0_d)">
<path d="M21.6413 23.0632L20.4594 25.558C19.5397 27.5919 17.1253 28.2899 14.9926 27.1206L5.21307 22.069C2.81509 20.8981 1.54423 18.3737 2.46066 16.4304L4.20536 13.6248C4.20536 13.6248 5.14359 15.4301 12.0034 19.2617C18.4111 23.0932 21.6413 23.0632 21.6413 23.0632Z" fill="#FFA947"/>
</g>
<path d="M21.6413 23.0632L20.4594 25.558C19.5397 27.5919 17.1253 28.2899 14.9926 27.1206L5.21307 22.069C2.81509 20.8981 1.54423 18.3737 2.46066 16.4304L4.20536 13.6248C4.20536 13.6248 5.14359 15.4301 12.0034 19.2617C18.4111 23.0932 21.6413 23.0632 21.6413 23.0632Z" fill="#BDBDBD"/>
<g filter="url(#filter1_d)">
<path d="M21.8034 23.0631L22.8245 25.1976C23.8462 27.4304 26.4933 28.2016 28.8398 26.9168L37.8174 22.2725C40.4352 20.9892 41.8138 18.2156 40.7954 16.0828L38.9684 13.6455C38.9684 13.6455 38.2792 15.43 31.4304 19.2615C25.0338 23.093 21.8034 23.0631 21.8034 23.0631Z" fill="#FFA947"/>
</g>
<path d="M21.8034 23.0631L22.8245 25.1976C23.8462 27.4304 26.4933 28.2016 28.8398 26.9168L37.8174 22.2725C40.4352 20.9892 41.8138 18.2156 40.7954 16.0828L38.9684 13.6455C38.9684 13.6455 38.2792 15.43 31.4304 19.2615C25.0338 23.093 21.8034 23.0631 21.8034 23.0631Z" fill="#FFA947"/>
<g filter="url(#filter2_i)">
<path d="M21.8034 23.0631L22.8245 25.1976C23.8462 27.4304 26.4933 28.2016 28.8398 26.9168L37.8174 22.2725C40.4352 20.9892 41.8138 18.2156 40.7954 16.0828L38.9684 13.6455C38.9684 13.6455 38.2792 15.43 31.4304 19.2615C25.0338 23.093 21.8034 23.0631 21.8034 23.0631Z" fill="#BDBDBD"/>
</g>
<path fill-rule="evenodd" clip-rule="evenodd" d="M21.1474 5.09833L21.79 2.3831C22.7962 0.268024 25.8738 -0.600709 28.5845 0.439696L39.776 4.93425C42.2498 5.97601 42.9459 8.47222 41.4091 10.5097L39.0344 13.7715C39.0344 13.7715 38.351 11.6897 31.5843 8.21463C24.3922 4.73954 21.1474 5.09833 21.1474 5.09833Z" fill="#BDBDBD"/>
<path d="M21.2643 5.0775L20.468 2.50317C19.4803 0.414532 16.526 -0.436041 13.9457 0.600339L3.29845 5.0775C0.946479 6.11523 0.311161 8.58684 1.80443 10.598L4.20326 13.6216C4.20326 13.6216 4.74152 11.7561 11.1694 8.29843C18.0066 4.84073 21.2643 5.0775 21.2643 5.0775Z" fill="#FF8D15"/>
<g filter="url(#filter3_i)">
<path d="M21.2643 5.0775L20.468 2.50317C19.4803 0.414532 16.526 -0.436041 13.9457 0.600339L3.29845 5.0775C0.946479 6.11523 0.311161 8.58684 1.80443 10.598L4.20326 13.6216C4.20326 13.6216 4.74152 11.7561 11.1694 8.29843C18.0066 4.84073 21.2643 5.0775 21.2643 5.0775Z" fill="#BDBDBD"/>
</g>
<path opacity="0.413949" fill-rule="evenodd" clip-rule="evenodd" d="M21.7134 22.9456L21.3555 4.96826C21.3555 4.96826 19.7152 5.03971 17.0069 5.87044C14.2987 6.70117 14.0848 6.96668 12.2996 7.73551C8.99745 9.15765 7.05232 10.9016 5.53165 12.1734C4.01097 13.4452 4.26332 13.6166 4.26332 13.6166C4.26332 13.6166 4.70459 14.3357 6.1986 15.5311C7.6926 16.7265 10.1268 18.3183 13.0045 19.8465C15.5548 21.2008 17.5515 22.0826 18.9853 22.5111C20.4192 22.9397 21.7134 22.9456 21.7134 22.9456Z" fill="#BDBDBD"/>
<path fill-rule="evenodd" clip-rule="evenodd" d="M21.7134 22.9452C21.7134 22.9452 26.5742 23.1115 34.3516 17.4851C38.0851 15.1094 39.0317 13.6337 39.0317 13.6337C39.0317 13.6337 38.2451 12.4657 36.4471 11.0873C34.6492 9.70887 33.1106 8.952 30.9567 7.92225C25.9147 5.51168 21.2407 5.01514 21.2407 5.01514C21.2407 5.01514 16.7007 5.33942 11.6155 7.92225C6.5303 10.5051 4.31207 13.6112 4.31207 13.6112C4.31207 13.6112 5.38639 15.5421 11.6155 19.2252C17.8446 22.9083 21.7134 22.9452 21.7134 22.9452Z" stroke="white" stroke-opacity="0.182348" stroke-width="0.6"/>
<path fill-rule="evenodd" clip-rule="evenodd" d="M21.2407 5.27124L21.7134 22.9456L21.2407 5.27124Z" fill="#C4C4C4"/>
<path d="M21.2407 5.27124L21.7134 22.9456" stroke="#505050" stroke-opacity="0.2" stroke-linecap="square"/>
<path d="M21.8701 36.7896V23.1902" stroke="white" stroke-opacity="0.0950804" stroke-linecap="square"/>
<defs>
<filter id="filter0_d" x="0.162109" y="13.6248" width="23.4792" height="20.0625" filterUnits="userSpaceOnUse" color-interpolation-filters="sRGB">
<feFlood flood-opacity="0" result="BackgroundImageFix"/>
<feColorMatrix in="SourceAlpha" type="matrix" values="0 0 0 0 0 0 0 0 0 0 0 0 0 0 0 0 0 0 127 0"/>
<feOffset dy="4"/>
<feGaussianBlur stdDeviation="1"/>
<feColorMatrix type="matrix" values="0 0 0 0 0 0 0 0 0 0 0 0 0 0 0 0 0 0 0.1 0"/>
<feBlend mode="normal" in2="BackgroundImageFix" result="effect1_dropShadow"/>
<feBlend mode="normal" in="SourceGraphic" in2="effect1_dropShadow" result="shape"/>
</filter>
<filter id="filter1_d" x="19.8034" y="13.6455" width="23.3285" height="19.893" filterUnits="userSpaceOnUse" color-interpolation-filters="sRGB">
<feFlood flood-opacity="0" result="BackgroundImageFix"/>
<feColorMatrix in="SourceAlpha" type="matrix" values="0 0 0 0 0 0 0 0 0 0 0 0 0 0 0 0 0 0 127 0"/>
<feOffset dy="4"/>
<feGaussianBlur stdDeviation="1"/>
<feColorMatrix type="matrix" values="0 0 0 0 0 0 0 0 0 0 0 0 0 0 0 0 0 0 0.1 0"/>
<feBlend mode="normal" in2="BackgroundImageFix" result="effect1_dropShadow"/>
<feBlend mode="normal" in="SourceGraphic" in2="effect1_dropShadow" result="shape"/>
</filter>
<filter id="filter2_i" x="21.8034" y="13.6455" width="19.3285" height="14.893" filterUnits="userSpaceOnUse" color-interpolation-filters="sRGB">
<feFlood flood-opacity="0" result="BackgroundImageFix"/>
<feBlend mode="normal" in="SourceGraphic" in2="BackgroundImageFix" result="shape"/>
<feColorMatrix in="SourceAlpha" type="matrix" values="0 0 0 0 0 0 0 0 0 0 0 0 0 0 0 0 0 0 127 0" result="hardAlpha"/>
<feOffset dy="1"/>
<feGaussianBlur stdDeviation="11"/>
<feComposite in2="hardAlpha" operator="arithmetic" k2="-1" k3="1"/>
<feColorMatrix type="matrix" values="0 0 0 0 0 0 0 0 0 0 0 0 0 0 0 0 0 0 0.127576 0"/>
<feBlend mode="normal" in2="shape" result="effect1_innerShadow"/>
</filter>
<filter id="filter3_i" x="1" y="0.158936" width="20.2643" height="14.4626" filterUnits="userSpaceOnUse" color-interpolation-filters="sRGB">
<feFlood flood-opacity="0" result="BackgroundImageFix"/>
<feBlend mode="normal" in="SourceGraphic" in2="BackgroundImageFix" result="shape"/>
<feColorMatrix in="SourceAlpha" type="matrix" values="0 0 0 0 0 0 0 0 0 0 0 0 0 0 0 0 0 0 127 0" result="hardAlpha"/>
<feOffset dy="1"/>
<feGaussianBlur stdDeviation="11"/>
<feComposite in2="hardAlpha" operator="arithmetic" k2="-1" k3="1"/>
<feColorMatrix type="matrix" values="0 0 0 0 0 0 0 0 0 0 0 0 0 0 0 0 0 0 0.203521 0"/>
<feBlend mode="normal" in2="shape" result="effect1_innerShadow"/>
</filter>
</defs>
</svg>
