<svg width="208" height="45" viewBox="0 0 208 45" fill="none" xmlns="http://www.w3.org/2000/svg">
<path d="M48.9583 35.1031C48.9583 35.1877 48.9442 35.2923 48.9159 35.4192C48.8876 35.5438 48.85 35.6425 48.8029 35.7165C48.7558 35.7893 48.7063 35.8258 48.6545 35.8258C48.598 35.8258 48.5309 35.7882 48.4543 35.713C48.3778 35.6378 48.2742 35.5567 48.1447 35.4709C48.0152 35.384 47.848 35.3017 47.6431 35.2277C47.4382 35.1537 47.1827 35.1149 46.8742 35.1149C46.534 35.1149 46.2243 35.1795 45.9441 35.3064C45.6639 35.4333 45.4119 35.606 45.187 35.8211C44.9621 36.0384 44.7643 36.2864 44.5948 36.5707C44.424 36.8527 44.2839 37.15 44.1732 37.459C44.0614 37.7692 43.9778 38.0806 43.9213 38.3967C43.8648 38.7116 43.8365 39.01 43.8365 39.2944C43.8365 39.6175 43.8777 39.9065 43.959 40.158C44.039 40.4106 44.1568 40.6233 44.311 40.7972C44.4641 40.9711 44.6536 41.1039 44.8762 41.192C45.0987 41.2813 45.3518 41.3248 45.6356 41.3248C45.9523 41.3248 46.2243 41.2895 46.4527 41.219C46.6811 41.1473 46.8778 41.0686 47.0414 40.9828C47.2051 40.8959 47.3417 40.816 47.4512 40.7467C47.5607 40.675 47.649 40.6397 47.7185 40.6397C47.7632 40.6397 47.795 40.6562 47.8162 40.6879C47.8362 40.7208 47.8456 40.769 47.8456 40.8336C47.8456 40.8548 47.8433 40.883 47.8362 40.9217C47.8303 40.9593 47.8232 41.0005 47.815 41.0451C47.8068 41.0898 47.7973 41.1379 47.7879 41.1908C47.7773 41.2437 47.7644 41.293 47.7479 41.3389C47.7314 41.3859 47.7149 41.4282 47.6961 41.4658C47.6784 41.5045 47.6478 41.5433 47.6054 41.5844C47.563 41.6256 47.4736 41.6855 47.3382 41.763C47.2027 41.8418 47.0367 41.917 46.8401 41.9875C46.6435 42.058 46.4233 42.1179 46.1772 42.1684C45.9323 42.2201 45.6721 42.2448 45.3966 42.2448C44.9833 42.2448 44.6101 42.1825 44.278 42.0591C43.946 41.9369 43.6634 41.7536 43.4303 41.5139C43.1972 41.2731 43.017 40.9734 42.8899 40.6162C42.7627 40.2579 42.6979 39.8466 42.6979 39.3813C42.6979 38.9971 42.738 38.6023 42.8192 38.1957C42.9005 37.7892 43.0194 37.3932 43.1783 37.0102C43.3361 36.6259 43.5339 36.264 43.7706 35.9245C44.0072 35.5849 44.2839 35.2864 44.5971 35.0291C44.9103 34.7718 45.2647 34.5697 45.6568 34.4228C46.0501 34.2748 46.481 34.2019 46.952 34.2019C47.2475 34.2019 47.5242 34.2348 47.7809 34.3018C48.0387 34.3688 48.2577 34.4522 48.4402 34.5532C48.6227 34.6543 48.7546 34.7448 48.8347 34.8223C48.9182 34.9057 48.9583 34.9974 48.9583 35.1031Z" fill="#828282"/>
<path d="M54.4403 38.3473C54.4403 38.647 54.4121 38.9525 54.3556 39.2627C54.299 39.5752 54.2131 39.8748 54.0977 40.1639C53.9823 40.4529 53.8351 40.7255 53.6562 40.9793C53.4772 41.2331 53.2688 41.4564 53.0274 41.6456C52.7861 41.8359 52.5129 41.9863 52.2068 42.0979C51.9006 42.2096 51.5604 42.2648 51.1824 42.2648C50.7939 42.2648 50.4607 42.219 50.1828 42.1261C49.9049 42.0333 49.6765 41.8982 49.4987 41.7196C49.3209 41.541 49.189 41.3236 49.1043 41.0639C49.0195 40.8054 48.9771 40.5117 48.9771 40.185C48.9771 39.8854 49.0042 39.5799 49.0595 39.2697C49.1137 38.9572 49.2008 38.6587 49.3174 38.3708C49.4351 38.0841 49.5823 37.8115 49.7589 37.5566C49.9344 37.2992 50.1439 37.076 50.3841 36.8868C50.6255 36.6965 50.8987 36.5461 51.2048 36.4344C51.5109 36.3228 51.8524 36.2676 52.2291 36.2676C52.6189 36.2676 52.9509 36.3146 53.2288 36.4098C53.5066 36.5049 53.7351 36.6401 53.9152 36.8187C54.0954 36.9973 54.2284 37.2158 54.3132 37.4743C54.3968 37.7328 54.4403 38.023 54.4403 38.3473ZM53.383 38.4073C53.383 38.2052 53.3618 38.023 53.3194 37.8609C53.277 37.6999 53.2052 37.5636 53.1063 37.452C53.0074 37.3404 52.8779 37.2546 52.7166 37.1935C52.5565 37.1324 52.3634 37.103 52.1361 37.103C51.8924 37.103 51.6722 37.1465 51.4732 37.2334C51.2743 37.3192 51.0976 37.4367 50.941 37.5848C50.7845 37.7328 50.649 37.9044 50.5337 38.1029C50.4183 38.3015 50.3229 38.513 50.2475 38.7363C50.1722 38.9607 50.1169 39.1922 50.0804 39.4283C50.0439 39.6645 50.0262 39.896 50.0262 40.1228C50.0262 40.3249 50.0486 40.507 50.0933 40.668C50.138 40.8301 50.2099 40.9676 50.31 41.0816C50.4089 41.1955 50.5372 41.2813 50.6961 41.3424C50.8551 41.4035 51.0458 41.4329 51.2731 41.4329C51.5203 41.4329 51.7417 41.3906 51.9383 41.3036C52.135 41.2167 52.3116 41.098 52.467 40.9488C52.6224 40.7984 52.759 40.6257 52.8744 40.4271C52.9898 40.2285 53.0851 40.0158 53.1605 39.7902C53.2347 39.5646 53.2912 39.3332 53.3277 39.0993C53.3642 38.8643 53.383 38.6352 53.383 38.4073Z" fill="#828282"/>
<path d="M63.2934 41.9981C63.2898 42.0299 63.2769 42.0581 63.2569 42.0792C63.2368 42.1027 63.2051 42.1203 63.1627 42.1368C63.1203 42.1532 63.0649 42.165 62.999 42.1732C62.9319 42.1814 62.8507 42.1861 62.7529 42.1861C62.6552 42.1861 62.5751 42.1814 62.5127 42.1732C62.4503 42.165 62.4009 42.1521 62.3667 42.1368C62.3326 42.1215 62.309 42.1027 62.2973 42.0792C62.2855 42.0569 62.2831 42.0299 62.2914 41.9981L62.966 38.6259C62.9861 38.5084 63.0037 38.3979 63.0167 38.2934C63.0308 38.1876 63.0379 38.083 63.0379 37.9773C63.0379 37.7176 62.9884 37.512 62.8895 37.3592C62.7906 37.2053 62.6175 37.1289 62.3703 37.1289C62.1677 37.1289 61.9582 37.1912 61.7415 37.3134C61.5249 37.4368 61.3188 37.6072 61.1246 37.8234C60.9303 38.0407 60.7572 38.2957 60.6077 38.593C60.4581 38.8903 60.3486 39.2122 60.2803 39.56L59.7941 41.9981C59.7858 42.0299 59.7717 42.0581 59.7517 42.0792C59.7317 42.1027 59.6999 42.1203 59.6575 42.1368C59.6151 42.1532 59.5598 42.165 59.4938 42.1732C59.4279 42.1814 59.3455 42.1861 59.2477 42.1861C59.15 42.1861 59.07 42.1814 59.0076 42.1732C58.9452 42.165 58.8969 42.1521 58.8651 42.1368C58.8321 42.1203 58.8109 42.1027 58.798 42.0792C58.785 42.0569 58.7815 42.0299 58.785 41.9981L59.4597 38.6259C59.4879 38.5049 59.5068 38.3862 59.5174 38.2687C59.528 38.15 59.5327 38.0419 59.5327 37.9409C59.5327 37.6941 59.4821 37.4979 59.3808 37.3498C59.2795 37.2018 59.1076 37.1289 58.8651 37.1289C58.6579 37.1289 58.4483 37.1912 58.2328 37.3134C58.0173 37.4368 57.8136 37.6072 57.6194 37.8234C57.4251 38.0407 57.252 38.2957 57.1025 38.593C56.953 38.8903 56.8435 39.2122 56.7752 39.56L56.2865 41.9981C56.2783 42.0299 56.2642 42.0581 56.2441 42.0792C56.2241 42.1027 56.1935 42.1203 56.1535 42.1368C56.1123 42.1532 56.0593 42.165 55.9922 42.1732C55.9251 42.1814 55.8438 42.1861 55.7461 42.1861C55.6448 42.1861 55.5624 42.1814 55.5 42.1732C55.4376 42.165 55.3882 42.1521 55.354 42.1368C55.3199 42.1203 55.2975 42.1027 55.2869 42.0792C55.2775 42.0569 55.2763 42.0299 55.2845 41.9981L56.3843 36.5344C56.3878 36.5062 56.3996 36.4803 56.4172 36.4557C56.4361 36.431 56.4643 36.4122 56.502 36.3957C56.5409 36.3781 56.5891 36.3687 56.648 36.3617C56.7069 36.3558 56.7763 36.3534 56.8576 36.3534C56.9424 36.3534 57.0118 36.3558 57.0672 36.3617C57.1213 36.3687 57.1649 36.3793 57.1943 36.3957C57.2249 36.4122 57.2438 36.431 57.252 36.4557C57.2603 36.4803 57.2614 36.5062 57.2579 36.5344L57.0519 37.5778C57.1131 37.4403 57.2132 37.2958 57.3521 37.1419C57.491 36.9879 57.6547 36.8458 57.8419 36.7177C58.0279 36.5884 58.2316 36.4815 58.453 36.3969C58.6743 36.3123 58.8992 36.27 59.1312 36.27C59.3749 36.27 59.5833 36.3029 59.7576 36.3699C59.9307 36.4369 60.0743 36.5273 60.1862 36.6425C60.2968 36.7576 60.3792 36.8951 60.4322 37.0549C60.484 37.2147 60.517 37.3898 60.53 37.579C60.6112 37.438 60.7231 37.2899 60.8643 37.136C61.0068 36.9821 61.1705 36.8422 61.3565 36.7153C61.5437 36.5884 61.7462 36.4827 61.9641 36.3969C62.1831 36.3123 62.4056 36.27 62.6328 36.27C62.9036 36.27 63.1309 36.3076 63.3134 36.3852C63.4959 36.4627 63.6431 36.5673 63.7573 36.7012C63.8703 36.834 63.9515 36.9903 63.9998 37.1677C64.0493 37.3451 64.0728 37.539 64.0728 37.7493C64.0728 37.8903 64.0646 38.0302 64.0481 38.1676C64.0316 38.3051 64.0092 38.4461 63.981 38.5918L63.2934 41.9981Z" fill="#828282"/>
<path d="M70.664 38.244C70.664 38.479 70.6416 38.7434 70.5969 39.036C70.5521 39.3297 70.4815 39.6258 70.3838 39.9243C70.286 40.2239 70.1624 40.5141 70.0105 40.7949C69.8586 41.0758 69.675 41.3249 69.4607 41.5434C69.2464 41.7631 68.9979 41.937 68.7165 42.0686C68.4351 42.1991 68.1161 42.2649 67.7593 42.2649C67.5768 42.2649 67.4108 42.2472 67.2612 42.2108C67.1117 42.1744 66.974 42.1239 66.848 42.0592C66.7232 41.9934 66.6066 41.9182 66.5018 41.8325C66.397 41.7455 66.2993 41.6492 66.2098 41.5434L65.6929 44.1637C65.6847 44.1954 65.6717 44.2236 65.6529 44.2483C65.6352 44.2729 65.6046 44.2918 65.5646 44.3082C65.5246 44.3258 65.4704 44.3364 65.4033 44.3446C65.3362 44.3528 65.2526 44.3576 65.1513 44.3576C65.0583 44.3576 64.9806 44.3528 64.917 44.3446C64.8546 44.3364 64.8051 44.3247 64.7686 44.3082C64.7321 44.2918 64.7098 44.2729 64.6992 44.2483C64.6886 44.2236 64.6862 44.1954 64.6898 44.1637L66.2275 36.5344C66.2357 36.4698 66.2769 36.4228 66.3499 36.3957C66.4229 36.3675 66.5442 36.3534 66.7149 36.3534C66.7997 36.3534 66.8692 36.3558 66.921 36.3617C66.974 36.3687 67.0163 36.3793 67.0481 36.3922C67.0799 36.4051 67.1011 36.4251 67.1094 36.4498C67.1176 36.4745 67.1188 36.5027 67.1152 36.5344L66.9092 37.5719C66.9657 37.4391 67.0623 37.2958 67.1977 37.1442C67.3331 36.9926 67.4956 36.8516 67.6839 36.72C67.8723 36.5896 68.0819 36.4815 68.3127 36.3969C68.5435 36.3123 68.7789 36.27 69.018 36.27C69.3253 36.27 69.5843 36.3217 69.7927 36.4275C70.0011 36.5332 70.1707 36.673 70.3002 36.8481C70.4297 37.0244 70.5227 37.2323 70.5792 37.4732C70.6357 37.7117 70.664 37.9691 70.664 38.244ZM69.6137 38.311C69.6137 38.1371 69.5984 37.9773 69.5678 37.8316C69.5384 37.6859 69.4889 37.5613 69.4218 37.4556C69.3547 37.351 69.2676 37.2699 69.1604 37.2135C69.0533 37.1571 68.9202 37.1289 68.7625 37.1289C68.5435 37.1289 68.3209 37.19 68.0937 37.3111C67.8664 37.4321 67.6557 37.6013 67.4614 37.821C67.2671 38.0396 67.0929 38.2957 66.9422 38.593C66.7915 38.8903 66.6796 39.2146 66.6113 39.5671L66.4112 40.5682C66.6019 40.8502 66.8056 41.0617 67.0246 41.2015C67.2436 41.3401 67.4908 41.4106 67.7652 41.4106C67.9807 41.4106 68.1761 41.3601 68.3515 41.2591C68.5282 41.158 68.6836 41.0229 68.819 40.8525C68.9544 40.6821 69.0721 40.4906 69.171 40.2768C69.2699 40.0617 69.3535 39.8397 69.4206 39.6105C69.4878 39.3802 69.536 39.1511 69.5666 38.9243C69.5984 38.6976 69.6137 38.4931 69.6137 38.311Z" fill="#828282"/>
<path d="M76.0672 41.998C76.0507 42.0673 76.006 42.1155 75.933 42.1437C75.86 42.1707 75.7387 42.186 75.568 42.186C75.4867 42.186 75.4208 42.1813 75.3678 42.1731C75.316 42.1649 75.2724 42.1531 75.2406 42.1402C75.2088 42.1261 75.1865 42.1085 75.1735 42.0861C75.1618 42.0626 75.1618 42.0344 75.1735 41.998L75.3737 40.9664C75.3207 41.0956 75.2265 41.2378 75.0876 41.3905C74.9498 41.5445 74.7873 41.6866 74.5978 41.8147C74.4094 41.944 74.1998 42.0509 73.969 42.1355C73.7383 42.2201 73.5028 42.2624 73.2638 42.2624C72.94 42.2624 72.6715 42.206 72.4584 42.092C72.2453 41.9792 72.0757 41.8288 71.9509 41.6432C71.825 41.4575 71.739 41.2472 71.6931 41.0134C71.646 40.7784 71.6224 40.5387 71.6224 40.2919C71.6224 40.0663 71.6436 39.809 71.686 39.5223C71.7284 39.2344 71.7979 38.9418 71.8932 38.6422C71.9886 38.3438 72.1122 38.0524 72.263 37.7692C72.4148 37.4872 72.5985 37.2334 72.8128 37.009C73.0271 36.7845 73.2767 36.6048 73.5605 36.4696C73.8442 36.3345 74.1657 36.2664 74.5271 36.2664C74.8874 36.2664 75.1959 36.3392 75.4538 36.4849C75.7104 36.6306 75.9412 36.8304 76.1425 37.0853L76.2579 36.5331C76.2744 36.4685 76.3203 36.4215 76.398 36.3944C76.4746 36.3662 76.5947 36.3521 76.7572 36.3521C76.8384 36.3521 76.9055 36.3545 76.9608 36.3604C77.015 36.3674 77.0586 36.378 77.0915 36.3944C77.1245 36.4109 77.1445 36.4297 77.1528 36.4544C77.161 36.479 77.1622 36.5049 77.1587 36.5331L76.0672 41.998ZM75.8788 37.9642C75.6881 37.6858 75.4832 37.4766 75.2618 37.3368C75.0405 37.1981 74.7932 37.1276 74.5177 37.1276C74.2987 37.1276 74.1009 37.1793 73.9255 37.2827C73.7489 37.3861 73.5934 37.5224 73.458 37.6928C73.3226 37.862 73.2049 38.0559 73.106 38.2709C73.0071 38.4883 72.9258 38.7104 72.8623 38.9407C72.7987 39.171 72.7528 39.3977 72.7221 39.6198C72.6915 39.8419 72.6762 40.0416 72.6762 40.2202C72.6762 40.3624 72.6868 40.5022 72.7092 40.6421C72.7316 40.7807 72.7739 40.9088 72.8364 41.0239C72.8988 41.1391 72.9847 41.2319 73.0942 41.3024C73.2037 41.3729 73.345 41.4082 73.5193 41.4082C73.7418 41.4082 73.9655 41.3471 74.1904 41.2237C74.4153 41.1015 74.6248 40.9299 74.8191 40.7102C75.0134 40.4917 75.1865 40.2355 75.3348 39.9406C75.4844 39.6457 75.5962 39.3202 75.6692 38.9642L75.8788 37.9642Z" fill="#828282"/>
<path d="M82.1132 36.546C82.1132 36.5625 82.1109 36.593 82.1038 36.64C82.0979 36.6858 82.0909 36.7399 82.0826 36.801C82.0744 36.8609 82.0626 36.9232 82.0461 36.9878C82.0296 37.0536 82.0096 37.1124 81.9849 37.1664C81.9602 37.2216 81.9354 37.2675 81.9095 37.3027C81.8836 37.3391 81.8542 37.3579 81.8212 37.3579C81.7894 37.3579 81.7529 37.3509 81.7153 37.3356C81.6764 37.3215 81.634 37.3051 81.5881 37.2839C81.541 37.2639 81.488 37.2475 81.4268 37.2334C81.3667 37.2181 81.2949 37.2111 81.2137 37.2111C81.0759 37.2111 80.917 37.271 80.7368 37.3897C80.5567 37.5095 80.3789 37.6728 80.2046 37.8843C80.0304 38.0947 79.8714 38.3438 79.7278 38.6305C79.5841 38.9172 79.4782 39.2285 79.4087 39.5646L78.9283 41.9957C78.9201 42.0274 78.9059 42.0556 78.8859 42.0767C78.8659 42.1002 78.8353 42.1179 78.7953 42.1343C78.754 42.1508 78.7011 42.1625 78.634 42.1707C78.5668 42.179 78.4856 42.1837 78.3879 42.1837C78.2866 42.1837 78.2042 42.179 78.1418 42.1707C78.0794 42.1625 78.0299 42.1496 77.9958 42.1343C77.9616 42.1179 77.9393 42.1002 77.9287 42.0767C77.9193 42.0544 77.9181 42.0274 77.9263 41.9957L79.0143 36.5319C79.0178 36.5037 79.0307 36.4779 79.0508 36.4532C79.0708 36.4285 79.1014 36.4097 79.1414 36.3933C79.1815 36.3756 79.2321 36.3662 79.2898 36.3592C79.3486 36.3533 79.4181 36.351 79.4994 36.351C79.5841 36.351 79.6536 36.3533 79.7089 36.3592C79.7631 36.3662 79.8067 36.3768 79.8361 36.3933C79.8667 36.4097 79.8856 36.4285 79.8938 36.4532C79.902 36.4779 79.9032 36.5037 79.8997 36.5319L79.6995 37.5271C79.7937 37.3603 79.9032 37.2017 80.0316 37.0477C80.1599 36.8938 80.2977 36.7599 80.4484 36.6447C80.5979 36.5284 80.7545 36.4367 80.9193 36.3686C81.083 36.3004 81.2443 36.2664 81.4021 36.2664C81.4715 36.2664 81.541 36.2711 81.6117 36.2816C81.6823 36.2922 81.7482 36.304 81.8083 36.3169C81.8695 36.3322 81.9225 36.3474 81.9696 36.3662C82.0167 36.385 82.052 36.405 82.0756 36.4297C82.1015 36.4544 82.1132 36.4943 82.1132 36.546Z" fill="#828282"/>
<path d="M87.2668 41.9981C87.2585 42.0298 87.2444 42.058 87.2244 42.0792C87.2044 42.1027 87.1738 42.1203 87.1326 42.1367C87.0925 42.1532 87.0384 42.1649 86.9713 42.1732C86.9041 42.1814 86.8229 42.1861 86.7252 42.1861C86.6275 42.1861 86.5474 42.1814 86.4815 42.1732C86.4167 42.1649 86.3672 42.152 86.3331 42.1367C86.299 42.1203 86.2754 42.1027 86.2625 42.0792C86.2507 42.0568 86.2483 42.0298 86.2566 41.9981L87.2162 37.2135H84.3904L83.7769 40.2579C83.7604 40.3425 83.7463 40.4377 83.7345 40.5423C83.7228 40.648 83.7157 40.735 83.7157 40.8043C83.7157 41.0099 83.7593 41.1615 83.8464 41.2555C83.9335 41.3507 84.0748 41.3988 84.2691 41.3988C84.3786 41.3988 84.474 41.3894 84.5552 41.3718C84.6364 41.3542 84.7059 41.3342 84.7648 41.3142C84.8236 41.2931 84.8755 41.2743 84.9202 41.2555C84.9649 41.2379 85.0026 41.2296 85.0356 41.2296C85.0674 41.2296 85.0933 41.2402 85.1109 41.2625C85.1298 41.2849 85.138 41.326 85.138 41.3859C85.138 41.4388 85.1333 41.4964 85.1227 41.5587C85.1121 41.6209 85.0992 41.682 85.0827 41.7431C85.0662 41.8042 85.0462 41.8583 85.0226 41.9076C84.9979 41.9558 84.972 41.9934 84.9437 42.0228C84.912 42.051 84.8625 42.0792 84.7977 42.1074C84.733 42.1356 84.6576 42.1614 84.5729 42.1826C84.4881 42.2049 84.3986 42.2213 84.3032 42.2343C84.2079 42.2472 84.1137 42.2531 84.0206 42.2531C83.7934 42.2531 83.5968 42.2284 83.4308 42.179C83.2647 42.1309 83.1246 42.0557 83.0116 41.9523C82.8986 41.8489 82.8138 41.7208 82.7596 41.5645C82.7055 41.4082 82.6784 41.2214 82.6784 41.0029C82.6784 40.9547 82.6796 40.9006 82.6843 40.8419C82.689 40.7831 82.6961 40.7209 82.7055 40.6574C82.7161 40.5928 82.7255 40.5282 82.7361 40.4635C82.7467 40.3977 82.7573 40.339 82.769 40.2814L83.3825 37.2135H82.623C82.5783 37.2135 82.5442 37.2006 82.5194 37.1747C82.4947 37.1489 82.4829 37.0972 82.4829 37.0196C82.4829 36.9632 82.4888 36.8974 82.5018 36.8222C82.5147 36.747 82.5324 36.6777 82.5559 36.6131C82.5807 36.5473 82.6113 36.4932 82.6501 36.4486C82.689 36.4039 82.7337 36.3816 82.7867 36.3816H83.552L83.8134 35.0844C83.817 35.0562 83.8311 35.0292 83.8535 35.0057C83.8758 34.9822 83.9064 34.961 83.9476 34.9422C83.9877 34.9234 84.0418 34.9117 84.109 34.9023C84.1761 34.894 84.2573 34.8905 84.355 34.8905C84.4528 34.8905 84.5328 34.894 84.5988 34.9023C84.6635 34.9117 84.713 34.9246 84.7471 34.9422C84.7813 34.9598 84.8036 34.981 84.8142 35.0057C84.8248 35.0303 84.8248 35.0562 84.8166 35.0844L84.5552 36.3816H88.0733C88.1946 36.3816 88.2723 36.4086 88.3076 36.4627C88.3418 36.5179 88.3465 36.5966 88.3229 36.7024L87.2668 41.9981ZM88.8339 34.7025C88.8139 34.8165 88.7857 34.9117 88.7515 34.9869C88.7174 35.0632 88.6715 35.1255 88.6149 35.1725C88.5584 35.2183 88.4878 35.2512 88.4054 35.2724C88.3218 35.2924 88.2205 35.3018 88.098 35.3018C87.9768 35.3018 87.8779 35.2912 87.8037 35.2724C87.7295 35.2512 87.6742 35.2183 87.64 35.1725C87.6059 35.1255 87.5871 35.0632 87.5823 34.9869C87.5788 34.9117 87.5859 34.8153 87.6071 34.7025C87.6283 34.5897 87.6553 34.4945 87.6895 34.4205C87.7236 34.3465 87.7707 34.2842 87.8296 34.2325C87.8885 34.182 87.9579 34.1479 88.0392 34.1303C88.1204 34.1115 88.2217 34.1033 88.343 34.1033C88.4642 34.1033 88.5631 34.1127 88.6373 34.1303C88.7115 34.1479 88.768 34.182 88.8045 34.2325C88.841 34.2842 88.861 34.3465 88.8657 34.4205C88.8704 34.4945 88.8587 34.5885 88.8339 34.7025Z" fill="#828282"/>
<path d="M90.1291 41.9981C90.1208 42.0298 90.1067 42.058 90.0867 42.0792C90.0667 42.1027 90.0361 42.1203 89.996 42.1367C89.9548 42.1532 89.9018 42.1649 89.8347 42.1732C89.7676 42.1814 89.6864 42.1861 89.5887 42.1861C89.4874 42.1861 89.405 42.1814 89.3426 42.1732C89.2802 42.1649 89.2307 42.152 89.1966 42.1367C89.1624 42.1203 89.1401 42.1027 89.1295 42.0792C89.12 42.0568 89.1189 42.0298 89.1271 41.9981L90.7437 33.8953C90.7519 33.8636 90.7649 33.8342 90.7826 33.8107C90.8014 33.786 90.832 33.766 90.8744 33.7496C90.9168 33.7331 90.9721 33.7226 91.0381 33.7143C91.1052 33.7061 91.1888 33.7014 91.29 33.7014C91.3877 33.7014 91.4666 33.7061 91.5302 33.7143C91.5938 33.7226 91.6421 33.7343 91.6762 33.7496C91.7104 33.7649 91.7316 33.786 91.7398 33.8107C91.748 33.8354 91.7504 33.8636 91.7457 33.8953L90.1291 41.9981Z" fill="#828282"/>
<path d="M96.5519 41.998C96.5437 42.0298 96.5296 42.058 96.5095 42.0791C96.4883 42.1026 96.4577 42.1202 96.4153 42.1367C96.373 42.1531 96.3188 42.1649 96.254 42.1731C96.1893 42.1813 96.1057 42.186 96.0044 42.186C95.9067 42.186 95.8278 42.1813 95.7642 42.1731C95.7007 42.1649 95.6524 42.152 95.6182 42.1367C95.5841 42.1214 95.5617 42.1026 95.5511 42.0791C95.5405 42.0568 95.5382 42.0298 95.5417 41.998L96.2164 38.6258C96.2376 38.5212 96.254 38.4037 96.2682 38.2709C96.2823 38.1405 96.2894 38.0254 96.2894 37.929C96.2894 37.8103 96.2776 37.7046 96.2529 37.6082C96.2281 37.5107 96.1893 37.4273 96.1339 37.3556C96.0798 37.2851 96.008 37.2299 95.9208 37.1888C95.8337 37.1488 95.7266 37.1277 95.6017 37.1277C95.3863 37.1277 95.1673 37.1911 94.9424 37.3157C94.7175 37.4402 94.5091 37.6141 94.316 37.8338C94.1229 38.0536 93.951 38.3132 93.8003 38.6129C93.6496 38.9125 93.5377 39.2333 93.4694 39.5764L92.9832 41.9969C92.9749 42.0286 92.9608 42.0568 92.9408 42.0779C92.9208 42.1014 92.8902 42.1191 92.8501 42.1355C92.8089 42.152 92.7559 42.1637 92.6888 42.1719C92.6217 42.1802 92.5405 42.1849 92.4427 42.1849C92.3415 42.1849 92.2591 42.1802 92.1967 42.1719C92.1343 42.1637 92.0848 42.1508 92.0507 42.1355C92.0165 42.1191 91.9941 42.1014 91.9835 42.0779C91.9741 42.0556 91.9729 42.0286 91.9812 41.9969L93.5978 33.8941C93.606 33.8623 93.619 33.833 93.6366 33.8095C93.6555 33.7848 93.6861 33.7648 93.7285 33.7484C93.7709 33.7319 93.8262 33.7213 93.8921 33.7131C93.9593 33.7049 94.0428 33.7002 94.1441 33.7002C94.2418 33.7002 94.3207 33.7049 94.3843 33.7131C94.4479 33.7213 94.4962 33.7331 94.5303 33.7484C94.5644 33.7636 94.5856 33.7848 94.5939 33.8095C94.6021 33.8341 94.6045 33.8623 94.5998 33.8941L94.1135 36.3627C94.0935 36.4685 94.0688 36.5754 94.0405 36.6835C94.0122 36.7928 93.9828 36.9021 93.9522 37.0078C93.9216 37.1136 93.891 37.217 93.8603 37.3145C93.8309 37.4108 93.8027 37.4954 93.7791 37.5695C93.8439 37.4285 93.9451 37.2816 94.0829 37.13C94.2206 36.9784 94.3831 36.8386 94.5692 36.7117C94.7552 36.5848 94.9612 36.4791 95.1861 36.3933C95.411 36.3075 95.643 36.2664 95.882 36.2664C96.141 36.2664 96.3624 36.3028 96.5449 36.378C96.7274 36.4532 96.8757 36.5554 96.9911 36.6882C97.1065 36.8186 97.1901 36.9761 97.2431 37.157C97.2949 37.3392 97.322 37.5354 97.322 37.7457C97.322 37.8914 97.3137 38.0324 97.2972 38.1699C97.2807 38.3074 97.2584 38.446 97.2301 38.5882L96.5519 41.998Z" fill="#828282"/>
<path d="M102.921 41.998C102.904 42.0673 102.859 42.1155 102.786 42.1437C102.713 42.1707 102.592 42.186 102.421 42.186C102.34 42.186 102.274 42.1813 102.221 42.1731C102.169 42.1649 102.126 42.1531 102.094 42.1402C102.062 42.1261 102.04 42.1085 102.027 42.0861C102.015 42.0626 102.015 42.0344 102.027 41.998L102.227 40.9664C102.174 41.0956 102.08 41.2378 101.941 41.3905C101.803 41.5445 101.641 41.6866 101.451 41.8147C101.263 41.944 101.053 42.0509 100.822 42.1355C100.592 42.2201 100.356 42.2624 100.117 42.2624C99.7934 42.2624 99.5249 42.206 99.3118 42.092C99.0987 41.9792 98.9291 41.8288 98.8043 41.6432C98.6783 41.4575 98.5924 41.2472 98.5465 41.0134C98.4994 40.7784 98.4758 40.5387 98.4758 40.2919C98.4758 40.0663 98.497 39.809 98.5394 39.5223C98.5818 39.2344 98.6513 38.9418 98.7466 38.6422C98.842 38.3438 98.9656 38.0524 99.1163 37.7692C99.2682 37.4872 99.4519 37.2334 99.6662 37.009C99.8805 36.7845 100.13 36.6048 100.414 36.4696C100.698 36.3345 101.019 36.2664 101.381 36.2664C101.741 36.2664 102.049 36.3392 102.307 36.4849C102.564 36.6306 102.795 36.8304 102.996 37.0853L103.111 36.5331C103.128 36.4685 103.174 36.4215 103.251 36.3944C103.328 36.3662 103.448 36.3521 103.611 36.3521C103.692 36.3521 103.759 36.3545 103.814 36.3604C103.868 36.3674 103.912 36.378 103.945 36.3944C103.978 36.4109 103.998 36.4297 104.006 36.4544C104.014 36.479 104.016 36.5049 104.012 36.5331L102.921 41.998ZM102.732 37.9642C102.541 37.6858 102.337 37.4766 102.115 37.3368C101.894 37.1981 101.647 37.1276 101.371 37.1276C101.152 37.1276 100.954 37.1793 100.779 37.2827C100.602 37.3861 100.447 37.5224 100.311 37.6928C100.176 37.862 100.058 38.0559 99.9594 38.2709C99.8605 38.4883 99.7792 38.7104 99.7157 38.9407C99.6521 39.171 99.6062 39.3977 99.5755 39.6198C99.5449 39.8419 99.5296 40.0416 99.5296 40.2202C99.5296 40.3624 99.5402 40.5022 99.5626 40.6421C99.585 40.7807 99.6273 40.9088 99.6897 41.0239C99.7522 41.1391 99.8381 41.2319 99.9476 41.3024C100.057 41.3729 100.198 41.4082 100.373 41.4082C100.595 41.4082 100.819 41.3471 101.044 41.2237C101.269 41.1015 101.478 40.9299 101.673 40.7102C101.867 40.4917 102.04 40.2355 102.188 39.9406C102.338 39.6457 102.45 39.3202 102.523 38.9642L102.732 37.9642Z" fill="#828282"/>
<path d="M110.122 37.7469C110.122 37.8879 110.113 38.0277 110.097 38.1652C110.08 38.3027 110.058 38.4437 110.03 38.5894L109.343 41.9969C109.335 42.0286 109.322 42.0568 109.303 42.078C109.286 42.1015 109.255 42.1191 109.213 42.1355C109.17 42.152 109.116 42.1637 109.051 42.172C108.987 42.1802 108.903 42.1849 108.802 42.1849C108.704 42.1849 108.625 42.1802 108.562 42.172C108.498 42.1637 108.45 42.1508 108.416 42.1355C108.381 42.1203 108.359 42.1015 108.348 42.078C108.338 42.0556 108.336 42.0286 108.339 41.9969L109.014 38.6246C109.042 38.5001 109.062 38.3791 109.071 38.2604C109.081 38.1429 109.087 38.0395 109.087 37.9514C109.087 37.7046 109.035 37.5049 108.929 37.3533C108.824 37.2017 108.648 37.1265 108.4 37.1265C108.185 37.1265 107.966 37.1888 107.741 37.311C107.516 37.4344 107.308 37.6047 107.115 37.8209C106.921 38.0383 106.75 38.2933 106.599 38.5906C106.448 38.8878 106.336 39.2098 106.268 39.5576L105.782 41.9957C105.773 42.0274 105.759 42.0556 105.739 42.0768C105.719 42.1003 105.689 42.1179 105.649 42.1344C105.607 42.1508 105.554 42.1626 105.487 42.1708C105.42 42.179 105.339 42.1837 105.241 42.1837C105.14 42.1837 105.058 42.179 104.995 42.1708C104.933 42.1626 104.883 42.1496 104.849 42.1344C104.815 42.1179 104.793 42.1003 104.782 42.0768C104.773 42.0545 104.771 42.0274 104.78 41.9957L105.879 36.532C105.883 36.5038 105.895 36.4779 105.912 36.4532C105.931 36.4286 105.96 36.4098 105.997 36.3933C106.036 36.3757 106.084 36.3663 106.143 36.3592C106.202 36.3534 106.272 36.351 106.353 36.351C106.438 36.351 106.507 36.3534 106.562 36.3592C106.616 36.3663 106.66 36.3769 106.69 36.3933C106.72 36.4098 106.739 36.4286 106.747 36.4532C106.755 36.4779 106.757 36.5038 106.753 36.532L106.547 37.5754C106.608 37.4379 106.707 37.2934 106.845 37.1394C106.983 36.9855 107.146 36.8433 107.337 36.7153C107.528 36.586 107.737 36.4791 107.966 36.3945C108.194 36.3099 108.434 36.2676 108.682 36.2676C108.953 36.2676 109.18 36.3087 109.362 36.391C109.545 36.4732 109.692 36.5825 109.805 36.7176C109.919 36.8527 110 37.0102 110.049 37.1876C110.098 37.3674 110.122 37.553 110.122 37.7469Z" fill="#828282"/>
<path d="M115.724 41.998C115.712 42.0674 115.67 42.1155 115.597 42.1437C115.524 42.1708 115.402 42.186 115.232 42.186C115.147 42.186 115.077 42.1813 115.026 42.1731C114.973 42.1649 114.93 42.1531 114.898 42.1402C114.866 42.1261 114.844 42.1085 114.835 42.0862C114.824 42.0627 114.823 42.0345 114.833 41.998L115.027 40.9793C114.974 41.1121 114.88 41.2543 114.741 41.407C114.603 41.5586 114.44 41.6972 114.251 41.8241C114.063 41.951 113.853 42.0568 113.622 42.1402C113.391 42.2225 113.156 42.2636 112.917 42.2636C112.678 42.2636 112.471 42.233 112.294 42.1696C112.117 42.1073 111.97 42.0239 111.85 41.9181C111.73 41.8136 111.633 41.6914 111.558 41.5504C111.483 41.4117 111.424 41.2684 111.382 41.1203C111.339 40.9734 111.311 40.8242 111.297 40.675C111.283 40.5246 111.276 40.3883 111.276 40.2614C111.276 40.0276 111.298 39.7644 111.343 39.473C111.387 39.1827 111.458 38.8902 111.556 38.5976C111.654 38.3038 111.777 38.0171 111.929 37.7363C112.081 37.4555 112.265 37.2076 112.479 36.9902C112.693 36.774 112.942 36.5989 113.223 36.4661C113.504 36.3334 113.823 36.2664 114.18 36.2664C114.355 36.2664 114.518 36.2852 114.672 36.324C114.827 36.3616 114.967 36.4144 115.092 36.4814C115.216 36.5484 115.333 36.6283 115.438 36.7211C115.543 36.8139 115.638 36.9115 115.723 37.0125L116.343 33.9187C116.347 33.8917 116.36 33.8635 116.38 33.8377C116.4 33.8118 116.43 33.7907 116.472 33.7766C116.512 33.7625 116.565 33.7507 116.629 33.7401C116.694 33.7307 116.778 33.7249 116.879 33.7249C116.977 33.7249 117.056 33.7307 117.119 33.7401C117.181 33.7507 117.232 33.7636 117.267 33.7766C117.304 33.7907 117.327 33.8106 117.338 33.8377C117.348 33.8635 117.349 33.8917 117.34 33.9187L115.724 41.998ZM115.53 37.9831C115.339 37.7046 115.134 37.4919 114.913 37.3462C114.691 37.2005 114.444 37.1277 114.168 37.1277C113.954 37.1277 113.76 37.177 113.588 37.2757C113.416 37.3756 113.261 37.5072 113.123 37.674C112.985 37.8397 112.867 38.0301 112.767 38.2427C112.668 38.4578 112.586 38.6787 112.521 38.9066C112.457 39.1346 112.408 39.3613 112.375 39.5822C112.343 39.8043 112.327 40.0088 112.327 40.1944C112.327 40.5869 112.394 40.8877 112.527 41.0956C112.66 41.3048 112.876 41.4082 113.171 41.4082C113.394 41.4082 113.617 41.3471 113.842 41.2272C114.067 41.105 114.277 40.9382 114.471 40.7232C114.665 40.5081 114.838 40.2543 114.987 39.9594C115.136 39.6645 115.248 39.3414 115.321 38.99L115.53 37.9831Z" fill="#828282"/>
<path d="M123.12 38.3473C123.12 38.647 123.092 38.9525 123.036 39.2627C122.979 39.5752 122.893 39.8748 122.778 40.1639C122.662 40.4529 122.515 40.7255 122.336 40.9793C122.157 41.2331 121.949 41.4564 121.707 41.6456C121.466 41.8359 121.193 41.9863 120.887 42.0979C120.581 42.2096 120.24 42.2648 119.862 42.2648C119.474 42.2648 119.141 42.219 118.863 42.1261C118.585 42.0333 118.357 41.8982 118.179 41.7196C118.001 41.541 117.869 41.3236 117.784 41.0639C117.7 40.8054 117.657 40.5117 117.657 40.185C117.657 39.8854 117.684 39.5799 117.74 39.2697C117.794 38.9572 117.881 38.6587 117.997 38.3708C118.115 38.0841 118.262 37.8115 118.439 37.5566C118.614 37.2992 118.824 37.076 119.064 36.8868C119.306 36.6965 119.579 36.5461 119.885 36.4344C120.191 36.3228 120.532 36.2676 120.909 36.2676C121.299 36.2676 121.631 36.3146 121.909 36.4098C122.187 36.5049 122.415 36.6401 122.595 36.8187C122.775 36.9973 122.908 37.2158 122.993 37.4743C123.077 37.7328 123.12 38.023 123.12 38.3473ZM122.063 38.4073C122.063 38.2052 122.042 38.023 121.999 37.8609C121.957 37.6999 121.885 37.5636 121.786 37.452C121.687 37.3404 121.558 37.2546 121.397 37.1935C121.237 37.1324 121.043 37.103 120.816 37.103C120.572 37.103 120.352 37.1465 120.153 37.2334C119.954 37.3192 119.778 37.4367 119.621 37.5848C119.465 37.7328 119.329 37.9044 119.214 38.1029C119.098 38.3015 119.003 38.513 118.928 38.7363C118.852 38.9607 118.797 39.1922 118.76 39.4283C118.724 39.6645 118.706 39.896 118.706 40.1228C118.706 40.3249 118.729 40.507 118.773 40.668C118.818 40.8301 118.89 40.9676 118.99 41.0816C119.089 41.1955 119.217 41.2813 119.376 41.3424C119.535 41.4035 119.726 41.4329 119.953 41.4329C120.2 41.4329 120.422 41.3906 120.618 41.3036C120.815 41.2167 120.992 41.098 121.147 40.9488C121.302 40.7984 121.439 40.6257 121.554 40.4271C121.67 40.2285 121.765 40.0158 121.841 39.7902C121.915 39.5646 121.971 39.3332 122.008 39.0993C122.044 38.8643 122.063 38.6352 122.063 38.4073Z" fill="#828282"/>
<path d="M132.041 36.4921C132.041 36.532 132.035 36.5732 132.022 36.6155C132.009 36.6578 131.996 36.7012 131.979 36.7459C131.83 37.1865 131.66 37.633 131.472 38.083C131.283 38.5342 131.075 38.9831 130.847 39.4296C130.617 39.8761 130.366 40.3144 130.093 40.7456C129.82 41.1756 129.521 41.5916 129.197 41.9923C129.169 42.0357 129.136 42.0698 129.099 42.0945C129.063 42.1191 129.019 42.1379 128.969 42.1532C128.918 42.1673 128.86 42.1767 128.796 42.1791C128.731 42.1838 128.654 42.1861 128.565 42.1861C128.439 42.1861 128.338 42.1814 128.261 42.1732C128.184 42.165 128.124 42.152 128.082 42.1368C128.04 42.1215 128.009 42.0992 127.991 42.0698C127.973 42.0428 127.962 42.0075 127.958 41.9664L127.15 36.7941C127.146 36.7506 127.142 36.7106 127.14 36.6754C127.138 36.6413 127.138 36.6096 127.138 36.5814C127.138 36.5297 127.146 36.4886 127.162 36.4604C127.179 36.4322 127.205 36.4098 127.241 36.3934C127.278 36.3758 127.327 36.3663 127.39 36.3593C127.453 36.3534 127.537 36.3511 127.642 36.3511C127.746 36.3511 127.832 36.3534 127.897 36.3593C127.962 36.3663 128.011 36.3769 128.046 36.3899C128.08 36.4028 128.103 36.4239 128.115 36.451C128.128 36.4768 128.136 36.5085 128.14 36.545L128.796 41.044V41.1181L128.826 41.0816C129.065 40.7209 129.284 40.3719 129.483 40.0347C129.681 39.6975 129.866 39.3485 130.037 38.989C130.207 38.6282 130.367 38.2511 130.519 37.8539C130.671 37.4579 130.827 37.0208 130.984 36.545C130.996 36.5085 131.014 36.4768 131.035 36.451C131.057 36.4251 131.089 36.404 131.133 36.3899C131.176 36.3758 131.232 36.3652 131.303 36.3593C131.375 36.3534 131.462 36.3511 131.568 36.3511C131.666 36.3511 131.745 36.3534 131.805 36.3593C131.866 36.3663 131.913 36.3746 131.949 36.384C131.983 36.3934 132.008 36.4087 132.022 36.4263C132.033 36.4451 132.041 36.4674 132.041 36.4921Z" fill="#828282"/>
<path d="M136.866 41.998C136.849 42.0673 136.804 42.1155 136.731 42.1437C136.658 42.1707 136.537 42.186 136.366 42.186C136.285 42.186 136.219 42.1813 136.166 42.1731C136.114 42.1649 136.071 42.1531 136.039 42.1402C136.007 42.1261 135.985 42.1085 135.972 42.0861C135.96 42.0626 135.96 42.0344 135.972 41.998L136.172 40.9664C136.119 41.0956 136.025 41.2378 135.886 41.3905C135.748 41.5445 135.586 41.6866 135.396 41.8147C135.208 41.944 134.998 42.0509 134.767 42.1355C134.537 42.2201 134.301 42.2624 134.062 42.2624C133.738 42.2624 133.47 42.206 133.257 42.092C133.044 41.9792 132.874 41.8288 132.749 41.6432C132.623 41.4575 132.537 41.2472 132.491 41.0134C132.444 40.7784 132.421 40.5387 132.421 40.2919C132.421 40.0663 132.442 39.809 132.484 39.5223C132.527 39.2344 132.596 38.9418 132.692 38.6422C132.787 38.3438 132.911 38.0524 133.061 37.7692C133.213 37.4872 133.397 37.2334 133.611 37.009C133.825 36.7845 134.075 36.6048 134.359 36.4696C134.643 36.3345 134.964 36.2664 135.326 36.2664C135.686 36.2664 135.994 36.3392 136.252 36.4849C136.509 36.6306 136.74 36.8304 136.941 37.0853L137.056 36.5331C137.073 36.4685 137.119 36.4215 137.196 36.3944C137.273 36.3662 137.393 36.3521 137.556 36.3521C137.637 36.3521 137.704 36.3545 137.759 36.3604C137.813 36.3674 137.857 36.378 137.89 36.3944C137.923 36.4109 137.943 36.4297 137.951 36.4544C137.959 36.479 137.961 36.5049 137.957 36.5331L136.866 41.998ZM136.677 37.9642C136.486 37.6858 136.282 37.4766 136.06 37.3368C135.839 37.1981 135.592 37.1276 135.316 37.1276C135.097 37.1276 134.899 37.1793 134.724 37.2827C134.547 37.3861 134.392 37.5224 134.256 37.6928C134.121 37.862 134.003 38.0559 133.904 38.2709C133.805 38.4883 133.724 38.7104 133.661 38.9407C133.597 39.171 133.551 39.3977 133.521 39.6198C133.49 39.8419 133.475 40.0416 133.475 40.2202C133.475 40.3624 133.485 40.5022 133.508 40.6421C133.53 40.7807 133.572 40.9088 133.635 41.0239C133.697 41.1391 133.783 41.2319 133.893 41.3024C134.002 41.3729 134.143 41.4082 134.318 41.4082C134.54 41.4082 134.764 41.3471 134.989 41.2237C135.214 41.1015 135.423 40.9299 135.618 40.7102C135.812 40.4917 135.985 40.2355 136.133 39.9406C136.283 39.6457 136.395 39.3202 136.468 38.9642L136.677 37.9642Z" fill="#828282"/>
<path d="M139.728 41.9981C139.72 42.0298 139.706 42.058 139.686 42.0792C139.665 42.1027 139.635 42.1203 139.595 42.1367C139.554 42.1532 139.501 42.1649 139.434 42.1732C139.366 42.1814 139.285 42.1861 139.187 42.1861C139.086 42.1861 139.004 42.1814 138.941 42.1732C138.879 42.1649 138.83 42.152 138.795 42.1367C138.761 42.1203 138.739 42.1027 138.728 42.0792C138.719 42.0568 138.718 42.0298 138.726 41.9981L140.343 33.8953C140.351 33.8636 140.364 33.8342 140.381 33.8107C140.4 33.786 140.431 33.766 140.473 33.7496C140.516 33.7331 140.571 33.7226 140.637 33.7143C140.704 33.7061 140.788 33.7014 140.889 33.7014C140.987 33.7014 141.065 33.7061 141.129 33.7143C141.193 33.7226 141.241 33.7343 141.275 33.7496C141.309 33.7649 141.33 33.786 141.339 33.8107C141.347 33.8354 141.349 33.8636 141.344 33.8953L139.728 41.9981Z" fill="#828282"/>
<path d="M147.123 38.3473C147.123 38.647 147.095 38.9525 147.038 39.2627C146.982 39.5752 146.896 39.8748 146.781 40.1639C146.665 40.4529 146.518 40.7255 146.339 40.9793C146.16 41.2331 145.952 41.4564 145.71 41.6456C145.469 41.8359 145.196 41.9863 144.89 42.0979C144.584 42.2096 144.243 42.2648 143.865 42.2648C143.477 42.2648 143.144 42.219 142.866 42.1261C142.588 42.0333 142.359 41.8982 142.182 41.7196C142.004 41.541 141.872 41.3236 141.787 41.0639C141.702 40.8054 141.66 40.5117 141.66 40.185C141.66 39.8854 141.687 39.5799 141.742 39.2697C141.797 38.9572 141.884 38.6587 142 38.3708C142.118 38.0841 142.265 37.8115 142.442 37.5566C142.617 37.2992 142.827 37.076 143.067 36.8868C143.308 36.6965 143.582 36.5461 143.888 36.4344C144.194 36.3228 144.535 36.2676 144.912 36.2676C145.302 36.2676 145.634 36.3146 145.912 36.4098C146.19 36.5049 146.418 36.6401 146.598 36.8187C146.778 36.9973 146.911 37.2158 146.996 37.4743C147.081 37.7328 147.123 38.023 147.123 38.3473ZM146.066 38.4073C146.066 38.2052 146.045 38.023 146.002 37.8609C145.96 37.6999 145.888 37.5636 145.789 37.452C145.69 37.3404 145.561 37.2546 145.4 37.1935C145.239 37.1324 145.046 37.103 144.819 37.103C144.575 37.103 144.355 37.1465 144.156 37.2334C143.957 37.3192 143.781 37.4367 143.624 37.5848C143.467 37.7328 143.332 37.9044 143.217 38.1029C143.101 38.3015 143.006 38.513 142.93 38.7363C142.855 38.9607 142.8 39.1922 142.763 39.4283C142.727 39.6645 142.709 39.896 142.709 40.1228C142.709 40.3249 142.731 40.507 142.776 40.668C142.821 40.8301 142.893 40.9676 142.993 41.0816C143.092 41.1955 143.22 41.2813 143.379 41.3424C143.538 41.4035 143.729 41.4329 143.956 41.4329C144.203 41.4329 144.425 41.3906 144.621 41.3036C144.818 41.2167 144.994 41.098 145.15 40.9488C145.305 40.7984 145.442 40.6257 145.557 40.4271C145.673 40.2285 145.768 40.0158 145.843 39.7902C145.918 39.5646 145.974 39.3332 146.011 39.0993C146.048 38.8643 146.066 38.6352 146.066 38.4073Z" fill="#828282"/>
<path d="M152.156 36.546C152.156 36.5625 152.153 36.593 152.146 36.64C152.14 36.6858 152.133 36.7399 152.125 36.801C152.117 36.8609 152.105 36.9232 152.088 36.9878C152.072 37.0536 152.052 37.1124 152.027 37.1664C152.002 37.2216 151.978 37.2675 151.952 37.3027C151.926 37.3391 151.897 37.3579 151.864 37.3579C151.832 37.3579 151.795 37.3509 151.758 37.3356C151.719 37.3215 151.676 37.3051 151.63 37.2839C151.583 37.2639 151.53 37.2475 151.469 37.2334C151.409 37.2181 151.337 37.2111 151.256 37.2111C151.118 37.2111 150.959 37.271 150.779 37.3897C150.599 37.5095 150.421 37.6728 150.247 37.8843C150.073 38.0947 149.914 38.3438 149.77 38.6305C149.626 38.9172 149.52 39.2285 149.451 39.5646L148.971 41.9957C148.962 42.0274 148.948 42.0556 148.928 42.0767C148.908 42.1002 148.878 42.1179 148.838 42.1343C148.796 42.1508 148.743 42.1625 148.676 42.1707C148.609 42.179 148.528 42.1837 148.43 42.1837C148.329 42.1837 148.247 42.179 148.184 42.1707C148.122 42.1625 148.072 42.1496 148.038 42.1343C148.004 42.1179 147.982 42.1002 147.971 42.0767C147.962 42.0544 147.96 42.0274 147.969 41.9957L149.057 36.5319C149.06 36.5037 149.073 36.4779 149.093 36.4532C149.113 36.4285 149.144 36.4097 149.184 36.3933C149.224 36.3756 149.274 36.3662 149.332 36.3592C149.391 36.3533 149.46 36.351 149.542 36.351C149.626 36.351 149.696 36.3533 149.751 36.3592C149.805 36.3662 149.849 36.3768 149.878 36.3933C149.909 36.4097 149.928 36.4285 149.936 36.4532C149.944 36.4779 149.946 36.5037 149.942 36.5319L149.742 37.5271C149.836 37.3603 149.946 37.2017 150.074 37.0477C150.202 36.8938 150.34 36.7599 150.491 36.6447C150.64 36.5284 150.797 36.4367 150.962 36.3686C151.125 36.3004 151.287 36.2664 151.444 36.2664C151.514 36.2664 151.583 36.2711 151.654 36.2816C151.725 36.2922 151.791 36.304 151.851 36.3169C151.912 36.3322 151.965 36.3474 152.012 36.3662C152.059 36.385 152.094 36.405 152.118 36.4297C152.144 36.4544 152.156 36.4943 152.156 36.546Z" fill="#828282"/>
<path d="M157.46 37.6564C157.46 37.9349 157.395 38.1851 157.266 38.4084C157.136 38.6305 156.934 38.822 156.658 38.9783C156.382 39.1345 156.03 39.2567 155.601 39.3425C155.171 39.4283 154.656 39.4694 154.057 39.4694H153.413C153.385 39.6022 153.365 39.7326 153.355 39.8572C153.346 39.9829 153.34 40.1004 153.34 40.2097C153.34 40.6139 153.44 40.9229 153.64 41.1367C153.84 41.3518 154.165 41.4587 154.615 41.4587C154.874 41.4587 155.107 41.4387 155.315 41.3999C155.521 41.3623 155.701 41.3212 155.853 41.2766C156.005 41.2319 156.129 41.1908 156.227 41.1532C156.325 41.1144 156.391 41.0944 156.427 41.0944C156.464 41.0944 156.491 41.1085 156.51 41.1344C156.528 41.1602 156.537 41.1978 156.537 41.2472C156.537 41.2871 156.533 41.3353 156.524 41.3917C156.516 41.4493 156.504 41.5069 156.487 41.5644C156.471 41.622 156.45 41.6796 156.424 41.7313C156.398 41.7842 156.368 41.8288 156.335 41.8652C156.286 41.9134 156.2 41.9604 156.078 42.0074C155.954 42.0532 155.807 42.0955 155.636 42.1343C155.465 42.1719 155.279 42.2048 155.077 42.2283C154.874 42.253 154.672 42.2636 154.469 42.2636C154.109 42.2636 153.792 42.2236 153.521 42.1425C153.251 42.0615 153.024 41.9369 152.843 41.7701C152.663 41.602 152.528 41.3929 152.439 41.1426C152.35 40.8912 152.306 40.5962 152.306 40.2567C152.306 39.9935 152.331 39.7115 152.382 39.4107C152.432 39.1087 152.512 38.8114 152.622 38.5153C152.731 38.2204 152.873 37.9372 153.047 37.6658C153.221 37.3944 153.43 37.1558 153.67 36.9514C153.911 36.7446 154.189 36.5801 154.505 36.4532C154.821 36.3286 155.177 36.2664 155.575 36.2664C155.915 36.2664 156.204 36.3087 156.44 36.3933C156.677 36.4779 156.871 36.5871 157.024 36.7199C157.176 36.8527 157.287 37.0019 157.355 37.1652C157.426 37.3309 157.46 37.4942 157.46 37.6564ZM156.433 37.7469C156.433 37.5401 156.352 37.3744 156.189 37.2463C156.027 37.1182 155.797 37.056 155.497 37.056C155.233 37.056 155.001 37.1006 154.799 37.1923C154.596 37.2827 154.416 37.4049 154.261 37.5589C154.105 37.7128 153.971 37.8914 153.86 38.0958C153.749 38.3003 153.659 38.5153 153.59 38.7421H154.209C154.634 38.7421 154.991 38.7162 155.276 38.6634C155.562 38.6105 155.79 38.54 155.962 38.4483C156.134 38.3567 156.257 38.2509 156.327 38.1299C156.398 38.0089 156.433 37.8796 156.433 37.7469Z" fill="#828282"/>
<path d="M162.321 36.8362C162.321 36.8774 162.316 36.9302 162.303 36.9972C162.291 37.0654 162.273 37.13 162.251 37.1946C162.228 37.2604 162.202 37.3145 162.172 37.3591C162.141 37.4038 162.108 37.4261 162.072 37.4261C162.024 37.4261 161.966 37.4061 161.899 37.3685C161.832 37.3297 161.75 37.2863 161.653 37.2381C161.555 37.1899 161.438 37.1453 161.303 37.1053C161.168 37.0654 161.006 37.0442 160.82 37.0442C160.642 37.0442 160.483 37.0689 160.347 37.1194C160.209 37.1699 160.094 37.2393 160.001 37.3262C159.908 37.4132 159.837 37.5119 159.788 37.6235C159.739 37.7351 159.715 37.8503 159.715 37.9725C159.715 38.1346 159.769 38.2686 159.876 38.3755C159.983 38.4824 160.118 38.5788 160.28 38.6634C160.441 38.748 160.618 38.8326 160.806 38.9148C160.994 38.9982 161.169 39.0993 161.329 39.2191C161.489 39.339 161.622 39.4823 161.729 39.6492C161.836 39.816 161.89 40.0275 161.89 40.2825C161.89 40.5657 161.835 40.8301 161.723 41.0745C161.611 41.3189 161.451 41.5292 161.243 41.7054C161.034 41.8805 160.781 42.0192 160.486 42.1179C160.19 42.2166 159.859 42.2659 159.496 42.2659C159.305 42.2659 159.126 42.2518 158.958 42.2236C158.789 42.1966 158.638 42.159 158.502 42.1143C158.365 42.0709 158.25 42.0203 158.152 41.9663C158.054 41.9111 157.98 41.8594 157.927 41.8112C157.894 41.7795 157.872 41.7454 157.857 41.7113C157.841 41.6772 157.835 41.6361 157.835 41.5868C157.835 41.555 157.838 41.5163 157.841 41.4716C157.845 41.427 157.853 41.3811 157.866 41.333C157.878 41.2836 157.891 41.2378 157.906 41.1931C157.92 41.1485 157.937 41.1085 157.958 41.0709C157.978 41.0357 157.998 41.0051 158.018 40.984C158.038 40.9605 158.063 40.9511 158.091 40.9511C158.14 40.9511 158.198 40.9769 158.268 41.0322C158.336 41.0862 158.426 41.1461 158.537 41.2072C158.649 41.2707 158.787 41.3294 158.954 41.3823C159.12 41.4375 159.326 41.4646 159.573 41.4646C159.796 41.4646 159.988 41.4375 160.148 41.3823C160.308 41.3283 160.441 41.2554 160.546 41.1638C160.652 41.0733 160.73 40.9664 160.78 40.8453C160.831 40.7231 160.855 40.5962 160.855 40.4635C160.855 40.2931 160.804 40.1544 160.698 40.0475C160.592 39.9394 160.46 39.8431 160.3 39.7561C160.14 39.6692 159.967 39.5834 159.781 39.4976C159.593 39.413 159.42 39.3131 159.261 39.198C159.101 39.0817 158.967 38.9407 158.86 38.7738C158.753 38.607 158.698 38.3931 158.698 38.1334C158.698 37.8667 158.751 37.6188 158.856 37.3908C158.961 37.1629 159.111 36.9643 159.302 36.7963C159.494 36.6283 159.725 36.4978 159.995 36.405C160.264 36.3122 160.562 36.2664 160.891 36.2664C161.045 36.2664 161.193 36.2781 161.337 36.3016C161.481 36.3251 161.614 36.3568 161.735 36.3933C161.856 36.4285 161.962 36.4685 162.052 36.5143C162.141 36.5601 162.207 36.6036 162.252 36.6471C162.299 36.6894 162.321 36.7516 162.321 36.8362Z" fill="#828282"/>
<path d="M21.2253 27.2224C21.2253 27.2224 21.4644 27.2224 21.7599 27.2329C22.0601 27.2341 22.6806 27.2388 23.1492 27.2341L30.7412 27.2224C31.2075 27.2224 31.8633 26.9615 32.1989 26.6443L36.2351 22.775C36.5671 22.4542 36.6966 22.5423 36.5188 22.97L35.0447 26.4492C34.8622 26.8734 34.9022 27.2235 35.1342 27.2271C35.3614 27.2271 36.4305 27.2235 36.8933 27.2235H42.5366C43.0017 27.2235 43.7647 27.2235 44.2262 27.2235C44.2262 27.2235 44.1968 27.2212 44.6383 27.2212C45.0846 27.2212 45.5296 26.8558 45.6321 26.4034L51.0447 1.07274C51.1377 0.618015 50.8386 0.246715 50.3759 0.242015C50.3759 0.242015 40.1594 0.16329 36.3434 0.343065C34.9246 0.41004 32.0164 1.17379 32.0164 1.17379C31.5701 1.29364 31.1898 1.38999 31.1828 1.39821C31.1828 1.39821 31.1828 1.39822 31.1498 1.41232C31.1098 1.43229 31.0438 1.46872 30.952 1.51337C30.8908 1.54157 30.826 1.57564 30.753 1.61442C30.6317 1.67317 30.494 1.75072 30.3397 1.83414C30.315 1.84589 30.2868 1.86469 30.2585 1.87879C30.1196 1.96574 29.9583 2.04564 29.7922 2.15727C29.6298 2.27477 29.6298 2.27477 29.6298 2.27477C29.432 2.40989 29.18 2.58614 29.0752 2.66251C28.9692 2.74476 28.6054 3.04439 28.4959 3.13956C28.3876 3.23591 27.8354 3.77994 27.5163 4.11364C27.5163 4.11364 27.302 4.33924 26.937 4.85742C26.5602 5.36032 26.24 5.94076 25.9444 6.55529C25.6442 7.16511 25.5029 7.71384 25.5029 7.71384C25.3899 8.16152 25.2686 8.68674 25.2321 8.87944C25.2321 8.87944 25.2321 8.87944 25.2038 9.05099C25.1673 9.22959 25.1673 9.22959 25.1673 9.22959C25.1509 9.42816 25.1273 9.64671 25.1191 9.71721C25.1108 9.79241 25.1038 9.89347 25.1038 9.94634C25.0955 9.99099 25.0955 10.2389 25.0908 10.3846C25.0837 10.5268 25.112 10.9627 25.1356 11.3587C25.1685 11.7523 25.444 13.1047 25.5535 13.4972C25.5535 13.4972 25.5535 13.4972 25.6783 13.8368C25.7843 14.1517 25.9056 14.4548 26.0598 14.7462C26.3683 15.3513 26.7003 15.9224 27.0924 16.4159C27.4704 16.9176 27.6882 17.1373 27.6882 17.1373C28.0202 17.4663 28.3805 17.8106 28.4983 17.907C28.6125 18.0068 28.9881 18.3135 29.1023 18.3969C29.2082 18.4792 29.5685 18.7271 29.6733 18.7953C29.7793 18.8575 30.1761 19.1043 30.3621 19.2042C30.3621 19.2042 30.3621 19.2042 30.5069 19.2864C30.7942 19.4521 31.0415 19.5473 31.204 19.626C31.37 19.7 32.671 20.1571 32.671 20.1571C32.7193 20.1747 31.5089 20.2593 30.4186 19.9926C30.2573 19.9526 30.0736 19.8904 29.8841 19.8175C29.6945 19.7376 29.6945 19.7376 29.6945 19.7376C29.4555 19.6342 29.167 19.5014 29.0493 19.4392C28.928 19.3757 28.4818 19.1337 28.3534 19.0549C28.2286 18.9739 28.1262 18.901 27.8719 18.7436" fill="#828282"/>
<path d="M1.90153 0.252525C8.99548 0.266625 16.093 0.268975 23.1822 0.24665C23.539 0.2443 24.0982 0.24665 24.0982 0.24665C24.0982 0.24665 23.977 0.830625 23.911 1.13612C23.6967 2.1948 23.4813 3.25582 23.2788 4.31802C23.2222 4.6341 23.101 5.12525 23.101 5.12525C23.101 5.12525 22.4605 5.13112 22.1202 5.12525C19.8913 5.07825 17.6519 5.12642 15.423 5.0947C14.6177 5.0806 14.1797 5.14757 13.9724 6.1757C12.6961 12.4948 11.2185 18.7705 9.99865 25.0967C9.86089 25.8452 9.52886 27.1177 9.52886 27.1177C9.52886 27.1177 5.4126 27.1013 4.28581 27.1013C5.85413 19.7387 7.39655 12.4784 8.96134 5.1041C5.95539 5.1041 2.92471 5.08412 0 5.08412C0 4.69167 0.992564 0.24665 0.992564 0.24665" fill="#828282"/>
<path d="M137.62 27.1013C135.198 27.1013 132.767 27.0861 130.337 27.1084C129.636 27.1096 129.283 27.1178 129.487 26.1649C131.281 17.9023 133.011 9.62204 134.745 1.35239C134.906 0.583942 135.207 0.219692 136.114 0.233792C140.672 0.291367 145.234 0.203242 149.795 0.283142C154.944 0.370092 156.829 2.34174 156.094 7.37074C155.425 11.9333 154.499 16.4805 153.146 20.9009C151.914 24.9429 149.03 26.9733 144.759 27.0825C142.381 27.1436 140.003 27.0931 137.62 27.0931C137.62 27.0955 137.62 27.0966 137.62 27.1013ZM140.76 22.2603C142.219 22.1828 143.949 22.359 145.682 22.0982C146.967 21.9043 147.797 21.2475 148.121 20.049C149.223 16.0199 150.057 11.9239 150.778 7.81489C151.135 5.81504 150.401 5.13237 148.331 5.11474C145.649 5.08537 142.975 5.16527 140.302 5.07009C139.365 5.04189 139.136 5.42142 138.973 6.17577C137.911 11.2318 136.842 16.2784 135.733 21.3239C135.563 22.07 135.716 22.2968 136.478 22.2686C137.816 22.2286 139.157 22.2603 140.76 22.2603Z" fill="#828282"/>
<path d="M63.2404 0C65.9296 0 68.6118 -3.03669e-08 71.2939 0.00234997C71.9733 0.123375 72.655 0.09165 73.3485 0.269075C76.3015 1.03047 77.5696 2.65785 77.347 5.7199C77.0962 9.3248 76.0107 12.7793 75.3372 16.316C75.0864 17.6626 74.7661 19.0021 74.3976 20.331C73.2755 24.4 70.7759 26.864 66.397 27.213C63.0308 27.4821 59.6434 27.5667 56.2971 27.2471C51.89 26.8194 50.3747 24.7819 51.1165 20.2652C51.8418 15.8531 52.7896 11.4609 53.9282 7.13812C55.2634 2.068 57.7512 0.311375 63.2404 0ZM62.2443 22.4002C62.2443 22.3943 62.2443 22.3861 62.2443 22.3755C63.5818 22.3755 64.9182 22.3673 66.2546 22.3755C67.8064 22.3861 68.8072 21.6012 69.184 20.1583C70.2778 15.9776 71.1821 11.7429 71.8779 7.48357C72.1935 5.57302 71.5942 4.935 69.6585 4.8692C67.2354 4.78813 64.7969 4.77402 62.3785 4.88095C60.2438 4.97848 59.5539 5.6165 58.9958 7.7174C58.6437 8.99697 58.4283 10.3106 58.148 11.6066C57.5852 14.1952 57.0024 16.7849 56.4667 19.3828C56.0169 21.5542 56.6244 22.3179 58.825 22.3932C59.9589 22.4319 61.101 22.4002 62.2443 22.4002Z" fill="#828282"/>
<path d="M169.86 0C172.546 0 175.233 -3.03669e-08 177.914 0.00234997C178.594 0.123375 179.283 0.09165 179.969 0.269075C182.926 1.03047 184.186 2.65785 183.968 5.7199C183.716 9.3248 182.626 12.7793 181.962 16.3125C181.706 17.6626 181.386 19.0021 181.022 20.331C179.897 24.4 177.396 26.864 173.021 27.213C169.651 27.4821 166.26 27.5667 162.917 27.2471C158.51 26.8194 156.995 24.7819 157.732 20.2652C158.462 15.8531 159.408 11.4609 160.548 7.13812C161.883 2.068 164.375 0.311375 169.86 0ZM168.977 22.3591C168.977 22.3673 168.977 22.3732 168.977 22.3755C170.265 22.3755 171.554 22.3673 172.842 22.3755C174.385 22.3943 175.419 21.6294 175.791 20.1971C176.893 16.0129 177.784 11.7817 178.497 7.5153C178.812 5.5883 178.233 4.94558 176.317 4.87273C173.891 4.7893 171.456 4.7752 169.033 4.88212C166.785 4.97965 165.934 5.8703 165.436 8.2438C164.934 10.6009 164.398 12.9473 163.945 15.3126C163.62 16.9999 163.11 18.6543 163.009 20.3839C162.941 21.6658 163.524 22.345 164.816 22.3579C166.207 22.3755 167.588 22.3591 168.977 22.3591Z" fill="#828282"/>
<path d="M98.6889 27.1015C100.832 23.3356 102.878 19.7636 104.912 16.1822C107.69 11.2625 110.494 6.35214 113.232 1.40539C113.701 0.567615 114.177 0.191615 115.176 0.233915C117.36 0.31734 119.543 0.30559 121.723 0.240965C122.602 0.210415 122.954 0.508865 123.076 1.35252C124.242 9.89947 125.426 18.4452 126.62 27.1015C125.061 27.1015 123.529 27.065 121.998 27.1097C121.225 27.1426 121.111 26.7078 121.039 26.1133C120.896 24.9418 120.71 23.7703 120.569 22.5977C120.496 21.9503 120.245 21.7141 119.532 21.72C115.666 21.7693 111.797 21.7587 107.925 21.7282C107.345 21.72 107.033 21.9268 106.774 22.4038C106.077 23.7034 105.324 24.9747 104.643 26.2872C104.344 26.8653 104.004 27.1508 103.299 27.1203C101.864 27.0533 100.427 27.1015 98.6889 27.1015ZM109.858 16.8707C112.995 16.8707 115.875 16.8261 118.751 16.8954C119.779 16.9177 119.807 16.6134 119.662 15.7145C119.156 12.5514 118.779 9.36131 118.346 6.18411C118.289 5.78462 118.512 5.16186 117.851 5.13249C117.267 5.11017 116.612 4.84931 116.17 5.65889C114.14 9.34956 112.042 13.0038 109.858 16.8707Z" fill="#828282"/>
<path d="M196.368 0C198.459 0 200.544 0 202.635 0C204.117 0.125725 205.593 0.245575 207.075 0.37365C207.676 0.424175 208.177 0.515825 207.829 1.35478C207.643 1.79893 207.631 2.31945 207.517 2.79533C206.954 5.28163 206.954 5.28985 204.479 5.01725C201.558 4.69178 198.633 4.8316 195.708 4.86568C193.877 4.89035 192.864 6.1758 192.507 8.63743C192.208 10.6972 192.401 10.8993 194.505 11.0356C197.272 11.2154 200.042 11.4198 202.802 11.649C204.573 11.7935 205.812 12.6559 206.027 14.3562C206.55 18.4358 205.723 22.2392 202.733 25.2602C201.084 26.9204 198.819 27.2964 196.56 27.3481C192.996 27.4316 189.429 27.4233 185.869 27.0979C184.657 26.9898 183.944 26.8123 184.39 25.1897C185.167 22.345 185.03 22.3191 187.955 22.3532C191.026 22.3943 194.096 22.4331 197.175 22.4143C199.497 22.3979 201.527 19.4463 200.797 17.2455C200.586 16.6192 200.077 16.4817 199.509 16.4394C196.79 16.2291 194.075 15.9788 191.366 15.8273C188.214 15.6451 186.848 14.3174 186.974 11.1637C187.052 8.99463 187.522 6.86788 188.413 4.87038C189.946 1.42762 192.799 0.13395 196.368 0Z" fill="#828282"/>
<path d="M90.6389 0C92.7335 0 94.8188 0 96.9063 0C98.583 0.12925 100.269 0.2726 101.942 0.376C102.78 0.42065 103.092 0.779025 102.853 1.59095C102.789 1.82713 102.709 2.06565 102.659 2.30418C101.987 5.23345 101.987 5.26518 98.9562 5.00668C96.1327 4.76228 93.3093 4.82103 90.4847 4.85745C88.091 4.88918 87.0772 5.70815 86.5591 8.04523C85.7161 11.8334 84.9272 15.6381 84.1525 19.4404C83.731 21.5201 84.3633 22.3368 86.4614 22.3849C90.1726 22.466 93.8992 22.4883 97.6022 22.1946C98.4122 22.1264 98.4452 22.399 98.3228 22.9854C98.3145 23.0324 98.291 23.0758 98.278 23.1264C97.5445 26.8652 97.5398 26.7947 93.6072 27.1554C90.6825 27.4222 87.7613 27.4222 84.8401 27.3352C79.975 27.193 78.0499 25.1415 78.8117 20.3957C79.5559 15.6957 80.5861 11.018 81.833 6.42725C83.0257 2.05625 85.7091 0.30785 90.6389 0Z" fill="#828282"/>
</svg>
