<svg width="39" height="31" viewBox="0 0 39 31" fill="none" xmlns="http://www.w3.org/2000/svg">
<path d="M35.3437 0.875H3.65628C1.64008 0.875 0 2.51508 0 4.53128V26.4688C0 28.485 1.64008 30.125 3.65628 30.125H35.3437C37.3599 30.125 39 28.485 39 26.4688V4.53128C39 2.51508 37.3599 0.875 35.3437 0.875ZM35.3437 3.31249C35.5093 3.31249 35.6668 3.34684 35.8109 3.40684L19.5 17.5436L3.18907 3.40684C3.33308 3.34693 3.49061 3.31249 3.65619 3.31249H35.3437ZM35.3437 27.6875H3.65628C2.98383 27.6875 2.43749 27.1412 2.43749 26.4687V5.98208L18.7014 20.0774C18.9311 20.2762 19.2156 20.375 19.5 20.375C19.7844 20.375 20.0689 20.2762 20.2986 20.0774L36.5625 5.98208V26.4688C36.5624 27.1412 36.0162 27.6875 35.3437 27.6875Z" fill="#F2F2F2"/>
</svg>
