<svg width="31" height="54" viewBox="0 0 31 54" fill="none" xmlns="http://www.w3.org/2000/svg">
<path d="M19.8001 2.69995H10.8001C10.3034 2.69995 9.90015 3.10316 9.90015 3.59992C9.90015 4.09667 10.3034 4.49988 10.8001 4.49988H19.8001C20.2968 4.49988 20.7 4.09667 20.7 3.59992C20.7 3.10316 20.2968 2.69995 19.8001 2.69995Z" fill="#F2F2F2"/>
<path d="M26.1 2.69995H25.2001C24.7033 2.69995 24.3001 3.10316 24.3001 3.59992C24.3001 4.09667 24.7033 4.49988 25.2001 4.49988H26.1C26.5968 4.49988 27 4.09667 27 3.59992C27 3.10316 26.5968 2.69995 26.1 2.69995Z" fill="#F2F2F2"/>
<path d="M16.4178 45.9001H14.1831C12.8142 45.9001 11.7001 47.0143 11.7001 48.3832V48.8179C11.7001 50.1868 12.8142 51.3001 14.1823 51.3001H16.417C17.7858 51.3001 18.9 50.1868 18.9 48.8179V48.3832C18.9 47.0143 17.7858 45.9001 16.4178 45.9001ZM17.1001 48.8179C17.1001 49.1941 16.7941 49.5001 16.4179 49.5001H14.1831C13.8061 49.5001 13.5 49.1941 13.5 48.8179V48.3832C13.5 48.0061 13.806 47.7001 14.1831 47.7001H16.417C16.7941 47.7001 17.1001 48.006 17.1001 48.3832V48.8179Z" fill="#F2F2F2"/>
<path d="M27.3474 0H3.2535C1.45979 0 0 1.45979 0 3.2535V50.7465C0 52.5402 1.45979 54 3.2535 54H27.3465C29.1402 54 30.6 52.5402 30.6 50.7475V3.2535C30.6001 1.45979 29.1403 0 27.3474 0ZM28.8 50.7465C28.8 51.5475 28.1484 52.2 27.3474 52.2H3.2535C2.45162 52.2 1.80003 51.5474 1.80003 50.7473V3.2535C1.80003 2.45246 2.45162 1.80004 3.2535 1.80004H27.3465C28.1483 1.80004 28.7999 2.45257 28.7999 3.2535V50.7465H28.8Z" fill="#F2F2F2"/>
<path d="M29.7 5.40015H0.900088C0.40333 5.40015 0.00012207 5.80335 0.00012207 6.30011V44.1001C0.00012207 44.5969 0.40333 45.0001 0.900088 45.0001H29.7001C30.1969 45.0001 30.6001 44.5969 30.6001 44.1001V6.30011C30.6001 5.80335 30.1969 5.40015 29.7 5.40015ZM28.5 42.5H2V7.20018H28.8001L28.5 42.5Z" fill="#F2F2F2"/>
</svg>
