<?xml version="1.0" encoding="utf-8"?>
<svg version="1.1" xmlns="http://www.w3.org/2000/svg" xmlns:xlink="http://www.w3.org/1999/xlink" height="56.658355712890625" width="68.40544927415749">
  <defs>
    <path id="path-1" opacity="1" fill-rule="evenodd" d="M53.70896603166292,32.3762032082252 C52.971469781675914,32.3762032082252 52.372922100527035,32.98055899254444 52.372922100527035,33.72521165536635 C52.372922100527035,34.46986431818826 52.971469781675914,35.074220102507496 53.70896603166292,35.074220102507496 C54.44646228164992,35.074220102507496 55.0450099627988,34.46986431818826 55.0450099627988,33.72521165536635 "/>
    <path id="path-2" opacity="1" fill-rule="evenodd" d="M14.69648324249473,32.3762032082252 C13.958986992507723,32.3762032082252 13.360439311358846,32.98055899254444 13.360439311358846,33.72521165536635 C13.360439311358846,34.46986431818826 13.958986992507723,35.074220102507496 14.69648324249473,35.074220102507496 C15.43397949248174,35.074220102507496 16.032527173630616,34.46986431818826 16.032527173630616,33.72521165536635 "/>
    <path id="path-3" opacity="1" fill-rule="evenodd" d="M67.10213470458984,35.702857971191406 C67.10213470458984,35.702857971191406 54.35318374633789,4.804257869720459 54.32439422607422,4.73593807220459 C54.323978424072266,4.736283302307129 54.309452056884766,4.720480442047119 54.281673431396484,4.69025993347168 C53.834693908691406,4.203999042510986 49.97031784057617,0 47.02874755859375,0 C43.073387145996094,0 39.780174255371094,2.90832781791687 39.13072204589844,6.717792510986328 C37.72426986694336,5.936582088470459 36.015869140625,5.5009870529174805 34.20272445678711,5.5009870529174805 C32.38957977294922,5.5009870529174805 30.681180953979492,5.936582088470459 29.27472686767578,6.717792510986328 C28.625276565551758,2.90832781791687 25.332061767578125,0 21.3767032623291,0 C18.24555015563965,0 15.381874084472656,1.8589341640472412 14.063064575195312,4.777379035949707 C14.063314437866211,4.777481555938721 1.3033108711242676,35.702857971191406 1.3033108711242676,35.702857971191406 C0.4387568235397339,37.62937545776367 0,39.686885833740234 0,41.81926345825195 C0,50.00153732299805 6.5928425788879395,56.658355712890625 14.696483612060547,56.658355712890625 C22.80012321472168,56.658355712890625 29.392967224121094,50.00153732299805 29.392967224121094,41.81926345825195 L29.392967224121094,34.239723205566406 C30.472890853881836,33.132591247558594 32.231658935546875,32.481021881103516 34.20272445678711,32.481021881103516 C36.173789978027344,32.481021881103516 37.932559967041016,33.1324577331543 39.012481689453125,34.239723205566406 L39.012481689453125,41.81926345825195 C39.012481689453125,50.00153732299805 45.605323791503906,56.658355712890625 53.70896530151367,56.658355712890625 C61.81260681152344,56.658355712890625 68.40544891357422,50.00153732299805 68.40544891357422,41.81926345825195 L67.10213470458984,35.702857971191406 L14.696483612060547,26.98016929626465 C19.661623001098633,26.98016929626465 24.058944702148438,29.479612350463867 26.72087860107422,33.297306060791016 L26.72087860107422,8.094051361083984 C26.72087860107422,5.118678092956543 24.323482513427734,2.6980173587799072 21.3767032623291,2.6980173587799072 C19.295948028564453,2.6980173587799072 17.39221954345703,3.9293923377990723 16.520584106445312,5.837160110473633 L6.8468241691589355,29.2833309173584 C9.154438972473145,27.810483932495117 11.865406036376953,26.98016929626465 14.696483612060547,26.98016929626465 L41.6845703125,8.094051361083984 C41.6845703125,5.118678092956543 44.081966400146484,2.6980173587799072 47.02874755859375,2.6980173587799072 C49.109500885009766,2.6980173587799072 51.01322937011719,3.9293923377990723 51.884864807128906,5.837160110473633 L61.55875778198242,29.283466339111328 C59.251007080078125,27.810483932495117 56.540042877197266,26.98016929626465 53.70896530151367,26.98016929626465 C48.74382400512695,26.98016929626465 44.34650421142578,29.479612350463867 41.6845703125,33.297306060791016 L41.6845703125,8.094051361083984 L34.20272445678711,24.38697052001953 C35.96576690673828,24.38697052001953 37.62874221801758,24.799766540527344 39.012481689453125,25.54064178466797 L39.012481689453125,9.957571029663086 C37.932559967041016,8.85030460357666 36.173789978027344,8.198868751525879 34.20272445678711,8.198868751525879 C32.231658935546875,8.198868751525879 30.472890853881836,8.85044002532959 29.392967224121094,9.957571029663086 L29.392967224121094,25.54064178466797 C30.776708602905273,24.799766540527344 32.43968200683594,24.38697052001953 34.20272445678711,24.38697052001953 L39.012481689453125,30.936676025390625 C37.62874221801758,30.19580078125 35.96576690673828,29.783004760742188 34.20272445678711,29.783004760742188 C32.43968200683594,29.783004760742188 30.776708602905273,30.19580078125 29.392967224121094,30.936676025390625 L29.392967224121094,28.84368896484375 C30.472890853881836,27.73655891418457 32.231658935546875,27.08498764038086 34.20272445678711,27.08498764038086 C36.173789978027344,27.08498764038086 37.932559967041016,27.73642349243164 39.012481689453125,28.84368896484375 L39.012481689453125,30.936676025390625 L14.69648265838623,53.9603385925293 C8.066231727600098,53.9603385925293 2.6720879077911377,48.513851165771484 2.6720879077911377,41.81926345825195 C2.6720879077911377,35.01553726196289 8.167503356933594,29.678186416625977 14.69648265838623,29.678186416625977 C21.326736450195312,29.678186416625977 26.72087860107422,35.124671936035156 26.72087860107422,41.81926345825195 L14.69648265838623,53.9603385925293 L41.6845703125,41.81926345825195 C41.6845703125,48.513851165771484 47.078712463378906,53.9603385925293 53.70896530151367,53.9603385925293 L65.73336029052734,41.81926345825195 C65.73336029052734,35.01378631591797 60.236473083496094,29.678186416625977 53.70896530151367,29.678186416625977 C47.078712463378906,29.678186416625977 41.6845703125,35.124671936035156 41.6845703125,41.81926345825195 L67.10213470458984,35.702857971191406Z"/>
    <path id="path-4" opacity="1" fill-rule="evenodd" d="M20.575744561458258,34.47930737731809 C20.002848923787184,34.01052694193653 19.161274851564684,34.099426598603145 18.696598772315618,34.678421024116126 C18.232056297459664,35.2572805487844 18.320502405700864,36.1068860687939 18.893798856551275,36.57580140502017 C20.47166673922277,37.86653268724484 21.376702898174226,39.77767295430972 21.376702898174226,41.81926233821316 C21.376702898174226,45.53847862698134 18.37995636063641,48.56430457391897 14.696483242494743,48.56430457391897 C13.9587197837215,48.56430457391897 13.360439311358846,49.168390556548786 13.360439311358846,49.913313021060134 C13.360439311358846,50.65823548557148 13.9587197837215,51.26232146820129 14.696483242494743,51.26232146820129 C19.85334560789308,51.26232146820129 24.04879076044602,47.02630004333333 24.04879076044602,41.81926233821316 "/>
    <path id="path-5" opacity="1" fill-rule="evenodd" d="M59.58822735062641,34.47930737731809 C59.01519810856223,34.01052694193653 58.173757640732845,34.099426598603145 57.709081561483785,34.678421024116126 C57.24453908662784,35.2572805487844 57.33298519486903,36.1068860687939 57.90628164571944,36.57580140502017 C59.48414952839093,37.86653268724484 60.389185687342376,39.77767295430972 60.389185687342376,41.81926233821316 C60.389185687342376,45.53847862698134 57.392439149804574,48.56430457391897 53.70896603166293,48.56430457391897 C52.971202572889695,48.56430457391897 52.37292210052704,49.168390556548786 52.37292210052704,49.913313021060134 C52.37292210052704,50.65823548557148 52.971202572889695,51.26232146820129 53.70896603166293,51.26232146820129 C58.865828397061236,51.26232146820129 63.06127354961416,47.02630004333333 63.06127354961416,41.81926233821316 "/>
  </defs>
  <g transform="translate(2.2737367544323206e-13, 0)" opacity="1">
    <g opacity="1">
      <g opacity="1">
        <use xlink:href="#path-1" fill="rgb(102,199,77)" fill-opacity="1"/>
      </g>
      <g opacity="1">
        <use xlink:href="#path-2" fill="rgb(102,199,77)" fill-opacity="1"/>
      </g>
      <g opacity="1">
        <use xlink:href="#path-3" fill="rgb(68,82,91)" fill-opacity="1"/>
      </g>
      <g opacity="1">
        <use xlink:href="#path-4" fill="rgb(68,82,91)" fill-opacity="1"/>
      </g>
      <g opacity="1">
        <use xlink:href="#path-5" fill="rgb(68,82,91)" fill-opacity="1"/>
      </g>
    </g>
  </g>
</svg>