<?xml version="1.0" encoding="utf-8"?>
<svg version="1.1" xmlns="http://www.w3.org/2000/svg" xmlns:xlink="http://www.w3.org/1999/xlink" height="44.00000999999975" width="509.421875">
  <defs>
    <path id="path-1" opacity="1" fill-rule="evenodd" d="M471.8671775,44 L502.9765525,44 C506.530507578125,44 509.421865,41.108673095703125 509.421865,37.5546875 L509.421865,6.4453125 C509.421865,2.891326904296875 506.530507578125,0 502.9765525,0 L471.8671775,0 C468.313222421875,0 465.421865,2.891326904296875 465.421865,6.4453125 L465.421865,37.5546875 C465.421865,41.108673095703125 468.313222421875,44 471.8671775,44 L467.99999,6.4453125 C467.99999,4.31298828125 469.73485328125,2.578125 471.8671775,2.578125 L502.9765525,2.578125 C505.10887671875,2.578125 506.84374,4.31298828125 506.84374,6.4453125 L506.84374,37.5546875 C506.84374,39.68701171875 505.10887671875,41.421875 502.9765525,41.421875 L471.8671775,41.421875 C469.73485328125,41.421875 467.99999,39.68701171875 467.99999,37.5546875 L467.99999,6.4453125 L471.8671775,44Z"/>
    <path id="path-2" opacity="1" fill-rule="evenodd" d="M487.421865,33.6015625 C493.81883765625,33.6015625 499.0234275,28.39697265625 499.0234275,22 C499.0234275,15.60302734375 493.81883765625,10.3984375 487.421865,10.3984375 C481.02489234375,10.3984375 475.8203025,15.60302734375 475.8203025,22 C475.8203025,28.39697265625 481.02489234375,33.6015625 487.421865,33.6015625 L487.421865,12.9765625 C492.3975119726563,12.9765625 496.4453025,17.02435302734375 496.4453025,22 C496.4453025,26.97564697265625 492.3975119726563,31.0234375 487.421865,31.0234375 C482.4462180273438,31.0234375 478.3984275,26.97564697265625 478.3984275,22 C478.3984275,17.02435302734375 482.4462180273438,12.9765625 487.421865,12.9765625 L487.421865,33.6015625Z"/>
    <path id="path-3" opacity="1" fill-rule="evenodd" d="M500.31249,12.9765625 C502.44481421875,12.9765625 504.1796775,11.24169921875 504.1796775,9.109375 C504.1796775,6.97705078125 502.44481421875,5.2421875 500.31249,5.2421875 C498.18016578125,5.2421875 496.4453025,6.97705078125 496.4453025,9.109375 C496.4453025,11.24169921875 498.18016578125,12.9765625 500.31249,12.9765625 L500.31249,7.8203125 C501.023183359375,7.8203125 501.6015525,8.398712158203125 501.6015525,9.109375 C501.6015525,9.820037841796875 501.023183359375,10.3984375 500.31249,10.3984375 C499.601796640625,10.3984375 499.0234275,9.820037841796875 499.0234275,9.109375 C499.0234275,8.398712158203125 499.601796640625,7.8203125 500.31249,7.8203125 L500.31249,12.9765625Z"/>
  </defs>
  <g opacity="1">
    <g opacity="1">
      <use xlink:href="#path-1" fill="rgb(255,255,255)" fill-opacity="1"/>
    </g>
    <g opacity="1">
      <use xlink:href="#path-2" fill="rgb(255,255,255)" fill-opacity="1"/>
    </g>
    <g opacity="1">
      <use xlink:href="#path-3" fill="rgb(255,255,255)" fill-opacity="1"/>
    </g>
  </g>
</svg>