<?xml version="1.0" encoding="utf-8"?>
<svg version="1.1" xmlns="http://www.w3.org/2000/svg" xmlns:xlink="http://www.w3.org/1999/xlink" height="44.00000999999975" width="501.6015625">
  <defs>
    <path id="path-1" opacity="1" fill-rule="evenodd" d="M495.15624,0 L464.046865,0 C460.492909921875,0 457.6015525,2.891326904296875 457.6015525,6.4453125 L457.6015525,37.5546875 C457.6015525,41.108673095703125 460.492909921875,44 464.046865,44 L495.15624,44 C498.710195078125,44 501.6015525,41.108673095703125 501.6015525,37.5546875 L501.6015525,6.4453125 C501.6015525,2.891326904296875 498.710195078125,0 495.15624,0 L499.0234275,37.5546875 C499.0234275,39.68701171875 497.28856421875,41.421875 495.15624,41.421875 L464.046865,41.421875 C461.91454078125,41.421875 460.1796775,39.68701171875 460.1796775,37.5546875 L460.1796775,6.4453125 C460.1796775,4.31298828125 461.91454078125,2.578125 464.046865,2.578125 L495.15624,2.578125 C497.28856421875,2.578125 499.0234275,4.31298828125 499.0234275,6.4453125 L499.0234275,37.5546875 L495.15624,0Z"/>
    <path id="path-2" opacity="1" fill-rule="evenodd" d="M465.421865,36.265625 L473.15624,36.265625 L473.15624,18.046875 L465.421865,18.046875 L465.421865,36.265625 L467.99999,20.625 L470.578115,20.625 L470.578115,33.6875 L467.99999,33.6875 L467.99999,20.625 L465.421865,36.265625Z"/>
    <path id="path-3" opacity="1" fill-rule="evenodd" d="M486.046865,18.046875 C485.1556296484375,18.046875 484.2874655859375,18.1959228515625 483.46874,18.48529052734375 L483.46874,18.046875 L475.734365,18.046875 L475.734365,36.265625 L483.46874,36.265625 L483.46874,27.0703125 C483.46874,26.359649658203125 484.047109140625,25.78125 484.7578025,25.78125 C485.468495859375,25.78125 486.046865,26.359649658203125 486.046865,27.0703125 L486.046865,36.265625 L493.78124,36.265625 L493.78124,26.18408203125 C493.78124,22.0120849609375 490.3967795507813,18.0509033203125 486.0542502539063,18.046875 L486.046865,18.046875 L491.203115,33.6875 L488.62499,33.6875 L488.62499,27.0703125 C488.62499,24.93798828125 486.89012671875,23.203125 484.7578025,23.203125 C482.62547828125,23.203125 480.8909812109375,24.93798828125 480.890615,27.069976806640625 L480.890615,33.6875 L478.31249,33.6875 L478.31249,20.625 L480.890615,20.625 L480.890615,23.204803466796875 L482.9537863867188,21.655242919921875 C483.85106421875,20.981170654296875 484.920644296875,20.625 486.0518698828125,20.625 C488.7958884375,20.627685546875 491.203115,23.22528076171875 491.203115,26.18408203125 L491.203115,33.6875 L486.046865,18.046875Z"/>
    <path id="path-4" opacity="1" fill-rule="evenodd" d="M465.421865,15.46875 L473.15624,15.46875 L473.15624,7.734375 L465.421865,7.734375 L465.421865,15.46875 L467.99999,10.3125 L470.578115,10.3125 L470.578115,12.890625 L467.99999,12.890625 L467.99999,10.3125 L465.421865,15.46875Z"/>
  </defs>
  <g opacity="1">
    <g opacity="1">
      <use xlink:href="#path-1" fill="rgb(255,255,255)" fill-opacity="1"/>
    </g>
    <g opacity="1">
      <use xlink:href="#path-2" fill="rgb(255,255,255)" fill-opacity="1"/>
    </g>
    <g opacity="1">
      <use xlink:href="#path-3" fill="rgb(255,255,255)" fill-opacity="1"/>
    </g>
    <g opacity="1">
      <use xlink:href="#path-4" fill="rgb(255,255,255)" fill-opacity="1"/>
    </g>
  </g>
</svg>