<svg width="64" height="33" viewBox="0 0 64 33" fill="none" xmlns="http://www.w3.org/2000/svg">
<path fill-rule="evenodd" clip-rule="evenodd" d="M10.8859 0.341886C10.954 0.137715 11.1451 0 11.3603 0H21.3062C21.6475 0 21.8885 0.334349 21.7805 0.658115L11.1139 32.6581C11.0458 32.8623 10.8547 33 10.6395 33H0.69362C0.352341 33 0.111357 32.6657 0.219279 32.3419L10.8859 0.341886ZM42.7806 0.658114C42.8885 0.334348 42.6475 0 42.3063 0H32.3603C32.1451 0 31.9541 0.137715 31.886 0.341886L21.2193 32.3419C21.1114 32.6657 21.3524 33 21.6937 33H31.6396C31.8548 33 32.0459 32.8623 32.1139 32.6581L42.7806 0.658114ZM63.7806 0.658114C63.8885 0.334348 63.6476 0 63.3063 0H53.3604C53.1452 0 52.9541 0.137715 52.886 0.341886L42.2194 32.3419C42.1114 32.6657 42.3524 33 42.6937 33H52.6396C52.8548 33 53.0459 32.8623 53.114 32.6581L63.7806 0.658114Z" fill="white"/>
</svg>
