<?xml version="1.0" encoding="utf-8"?>
<svg version="1.1" xmlns="http://www.w3.org/2000/svg" xmlns:xlink="http://www.w3.org/1999/xlink" height="33.51563499999975" width="397.90625">
  <defs>
    <path id="path-1" opacity="1" fill-rule="evenodd" d="M360.3515525,33.515625 L391.4609275,33.515625 C395.014882578125,33.515625 397.90624,30.624298095703125 397.90624,27.0703125 L397.90624,6.4453125 C397.90624,2.891326904296875 395.014882578125,0 391.4609275,0 L360.3515525,0 C356.797597421875,0 353.90624,2.891326904296875 353.90624,6.4453125 L353.90624,27.0703125 C353.90624,30.624298095703125 356.797597421875,33.515625 360.3515525,33.515625 L356.484365,6.4453125 C356.484365,4.31298828125 358.21922828125,2.578125 360.3515525,2.578125 L391.4609275,2.578125 C393.59325171875,2.578125 395.328115,4.31298828125 395.328115,6.4453125 L395.328115,27.0703125 C395.328115,29.20263671875 393.59325171875,30.9375 391.4609275,30.9375 L360.3515525,30.9375 C358.21922828125,30.9375 356.484365,29.20263671875 356.484365,27.0703125 L356.484365,6.4453125 L360.3515525,33.515625Z"/>
    <path id="path-2" opacity="1" fill-rule="evenodd" d="M369.4609275,8.12176513671875 L369.4609275,25.644287109375 L384.97264625,16.739349365234375 L369.4609275,8.12176513671875 L372.0390525,12.50323486328125 L379.73045875,16.776275634765625 L372.0390525,21.191650390625 L372.0390525,12.50323486328125 L369.4609275,8.12176513671875Z"/>
  </defs>
  <g opacity="1">
    <g opacity="1">
      <use xlink:href="#path-1" fill="rgb(255,255,255)" fill-opacity="1"/>
    </g>
    <g opacity="1">
      <use xlink:href="#path-2" fill="rgb(255,255,255)" fill-opacity="1"/>
    </g>
  </g>
</svg>