<?xml version="1.0" encoding="utf-8"?>
<svg version="1.1" xmlns="http://www.w3.org/2000/svg" xmlns:xlink="http://www.w3.org/1999/xlink" height="71.12201864764188" width="70.17704352684359">
  <defs>
    <path id="path-1" opacity="1" fill-rule="evenodd" d="M15.183771812273203,53.738058249237405 C14.661378635199053,53.211944954852356 13.815796431183117,53.211944954852356 13.294739298040101,53.738058249237405 C12.772346120965949,54.2655205520696 12.772346120965949,55.11930799826523 13.294739298040101,55.64542129265028 C13.815796431183117,56.17288359548248 14.661378635199053,56.17288359548248 15.183771812273203,55.64542129265028 "/>
    <path id="path-2" opacity="1" fill-rule="evenodd" d="M18.34191245669217,20.427262465670196 "/>
    <path id="path-3" opacity="1" fill-rule="evenodd" d="M51.20752310752869,38.35126721858978 C49.586902379989624,36.713030219078064 47.055633306503296,36.81663739681244 45.53788733482361,38.35072934627533 L44.59357047080994,39.30420911312103 L41.75955557823181,36.44269025325775 L49.17272925376892,28.95758283138275 C54.40253806114197,30.6704181432724 60.17518210411072,29.293754935264587 64.09860968589783,25.3325275182724 C68.23072791099548,21.161796927452087 69.52307868003845,14.915483832359314 67.39075446128845,9.41921842098236 C67.22615790367126,8.995630621910095 66.86114478111267,8.684009909629822 66.41998267173767,8.590927481651306 C65.97856116294861,8.497846961021423 65.5206983089447,8.635713934898376 65.20204901695251,8.95745313167572 L57.14997839927673,17.087656378746033 C54.60428214073181,16.002378821372986 52.55612540245056,13.933945059776306 51.48288321495056,11.364624381065369 L59.534015417099,3.2341498136520386 C59.85279440879822,2.912411093711853 59.98920798301697,2.449971079826355 59.897151708602905,2.0045284032821655 C59.80496573448181,1.5590860843658447 59.49647498130798,1.1905369758605957 59.07682013511658,1.024338960647583 C53.635249853134155,-1.1290831565856934 47.44882941246033,0.1754080057144165 43.316314458847046,4.348026156425476 C39.3943555355072,8.308176398277283 38.03078818321228,14.137915015220642 39.72623038291931,19.419958472251892 L32.312923192977905,26.90412175655365 L22.411502599716187,16.906755805015564 L21.16564154624939,10.256683707237244 C21.095767736434937,9.883547186851501 20.873315572738647,9.557491660118103 20.55306601524353,9.358513236045837 L5.8160998821258545,0.2021183967590332 C5.289164304733276,-0.12515103816986084 4.608983755111694,-0.04461526870727539 4.171162366867065,0.397050142288208 L0.393097460269928,4.211911082267761 C-0.04432332515716553,4.6535762548446655 -0.12421876192092896,5.340626120567322 0.2000390887260437,5.87267529964447 L9.2685706615448,20.752777457237244 C9.465636968612671,21.076135993003845 9.788558721542358,21.300745368003845 10.1579749584198,21.37129819393158 L16.744138479232788,22.629383444786072 L26.644891500473022,32.62729108333588 L1.9592080116271973,57.553728461265564 C-0.6519560813903809,60.18834149837494 -0.6539601683616638,64.45471799373627 1.9585399627685547,67.09094846248627 C4.568502187728882,69.72798764705658 8.79374098777771,69.72907102108002 11.404503583908081,67.09121549129486 L36.09205603599548,42.16545331478119 L38.92620825767517,45.02683484554291 L37.98255896568298,45.97977674007416 C36.41511130332947,47.56027448177338 36.41337561607361,50.12230908870697 37.9818913936615,51.70429456233978 L52.43881964683533,66.3029922246933 C56.094905614852905,69.99131619930267 62.00663352012634,69.9929336309433 65.66485571861267,66.30245053768158 C69.30985236167908,62.62073743343353 69.30985236167908,56.62979352474213 65.66458868980408,52.94794309139252 L51.20752310752869,38.35126721858978 L42.21287512779236,20.724449515342712 C42.58843970298767,20.34524381160736 42.7058789730072,19.777580618858337 42.51228308677673,19.278581976890564 C40.76741003990173,14.78139340877533 41.82462286949158,9.669594168663025 45.205615758895874,6.255793452262878 C48.077441930770874,3.3558300733566284 52.16132712364197,2.149007201194763 56.05576300621033,2.9308923482894897 L48.984615087509155,10.071733832359314 C48.62682318687439,10.432999014854431 48.50190329551697,10.96734082698822 48.661826848983765,11.451769232749939 C49.976226568222046,15.434582114219666 53.11686682701111,18.60623586177826 57.06260657310486,19.93581998348236 C57.54291129112244,20.097565054893494 58.07225012779236,19.971567511558533 58.43017935752869,19.61003339290619 L65.50212836265564,12.469461798667908 C66.27662634849548,16.402090430259705 65.08113837242126,20.526010870933533 62.209312200546265,23.424490332603455 C58.82738471031189,26.839504599571228 53.765647649765015,27.906839728355408 49.31354880332947,26.14422643184662 C48.819080114364624,25.94821584224701 48.25660681724548,26.066927313804626 47.88117575645447,26.44613492488861 L39.87012457847595,34.53478467464447 L34.20195746421814,28.81175458431244 L42.21287512779236,20.724449515342712 L18.341777563095093,20.427128195762634 C18.151927709579468,20.23556935787201 17.909568548202515,20.106199622154236 17.645833730697632,20.05574643611908 L11.234826803207397,18.83111608028412 L3.0285778045654297,5.366257548332214 L5.314415693283081,3.0582393407821655 L18.649871587753296,11.343849539756775 L19.86273169517517,17.817066550254822 C19.912564992904663,18.08349645137787 20.040826559066772,18.328476309776306 20.23067831993103,18.52017056941986 L42.70413947105408,41.21170270442963 L40.8153760433197,43.11893308162689 L18.341777563095093,20.427128195762634 L3.8477063179016113,65.18331754207611 C5.41555380821228,66.76705014705658 7.949093580245972,66.76569974422455 9.514803647994995,65.1838515996933 L34.20249152183533,40.25768506526947 L28.53405737876892,34.53492200374603 L3.848106861114502,59.46163022518158 C2.280125856399536,61.04402005672455 2.2810611724853516,63.60241162776947 3.8477063179016113,65.18331754207611 L54.327720403671265,64.3942779302597 C56.940757513046265,67.03037869930267 61.16385626792908,67.02889096736908 63.77568793296814,64.39387357234955 L63.77515387535095,54.85490262508392 L49.31755805015564,40.258360266685486 C48.79195761680603,39.72725522518158 47.94731116294861,39.732786536216736 47.42785620689392,40.25768506526947 C47.03626227378845,40.653215765953064 40.334800481796265,47.41970670223236 39.87119269371033,47.88781201839447 C39.346126317977905,48.41743314266205 39.34946799278259,49.2702773809433 39.87052512168884,49.795713782310486 L54.327720403671265,64.3942779302597 L51.20752310752869,38.35126721858978Z"/>
    <path id="path-4" opacity="1" fill-rule="evenodd" d="M18.340442808368152,20.425778556378475 "/>
    <path id="path-5" opacity="1" fill-rule="evenodd" d="M11.404504344269238,57.553998443665606 C10.882912793553789,57.02721064505698 10.037330589537884,57.02721064505698 9.515071016856865,57.553998443665606 L5.7370059883908,61.368724530491406 C5.215280833282236,61.89551232910003 5.215280833282236,62.7495695769851 5.7370059883908,63.27635737559373 C6.258731143499365,63.80314517420236 7.104313347515269,63.80328007504707 7.626439315803175,63.27635737559373 L11.404504344269238,59.46163128876793 "/>
    <path id="path-6" opacity="1" fill-rule="evenodd" d="M60.9407379702085,55.80986542235677 L50.262273246211855,45.0265664001339 C49.74081529988952,44.49991350236999 48.894832282694274,44.499643700680565 48.3729735231926,45.0265664001339 C47.85111476369092,45.553354198742525 47.85111476369092,46.407276545782885 48.372839918799485,46.93419924523622 L59.05130464279614,57.71749826745909 C59.57289619351159,58.24428606606771 60.41887921070683,58.24442096691243 60.940604365815396,57.71749826745909 "/>
    <path id="path-7" opacity="1" fill-rule="evenodd" d="M57.16253933734904,59.624456608337915 L46.48287217381432,48.842506594562245 C45.961147018705766,48.31585369679834 45.115164001510514,48.31585369679834 44.593572450795065,48.84264149540696 C44.0718472956865,49.369564194860295 44.0718472956865,50.22348654190064 44.59370605518817,50.75040924135398 L55.27337321872289,61.53235925512965 C55.79509837383145,62.05914705373826 56.64094778663358,62.05901215289355 57.16267294174215,61.532224354284935 "/>
  </defs>
  <g transform="translate(0.6539601561971722, 1.1290831145770426)" opacity="1">
    <g opacity="1">
      <g opacity="1">
        <use xlink:href="#path-1" fill="rgb(68,82,91)" fill-opacity="1"/>
      </g>
      <g opacity="1">
        <use xlink:href="#path-2" fill="rgb(68,82,91)" fill-opacity="1"/>
      </g>
      <g opacity="1">
        <use xlink:href="#path-3" fill="rgb(68,82,91)" fill-opacity="1"/>
      </g>
      <g opacity="1">
        <use xlink:href="#path-4" fill="rgb(68,82,91)" fill-opacity="1"/>
      </g>
      <g opacity="1">
        <use xlink:href="#path-5" fill="rgb(68,82,91)" fill-opacity="1"/>
      </g>
      <g opacity="1">
        <use xlink:href="#path-6" fill="rgb(68,82,91)" fill-opacity="1"/>
      </g>
      <g opacity="1">
        <use xlink:href="#path-7" fill="rgb(68,82,91)" fill-opacity="1"/>
      </g>
    </g>
  </g>
</svg>